<?xml version="1.0" encoding="UTF-8"?><svg xmlns="http://www.w3.org/2000/svg" xmlns:xlink="http://www.w3.org/1999/xlink" fill-opacity="1" color-rendering="auto" color-interpolation="auto" text-rendering="auto" stroke="black" stroke-linecap="square" width="991" stroke-miterlimit="10" shape-rendering="auto" stroke-opacity="1" fill="black" stroke-dasharray="none" font-weight="normal" stroke-width="1" height="1086" font-family="'Dialog'" font-style="normal" stroke-linejoin="miter" font-size="12px" stroke-dashoffset="0" image-rendering="auto">
  <!--Generated by ySVG 2.5-->
  <defs id="genericDefs"/>
  <g>
    <defs id="defs1">
      <linearGradient x1="150.0907" gradientUnits="userSpaceOnUse" x2="230.0907" y1="124.8118" y2="164.8118" id="linearGradient1" spreadMethod="reflect">
        <stop stop-opacity="1" stop-color="rgb(204,255,204)" offset="0%"/>
        <stop stop-opacity="1" stop-color="rgb(51,153,102)" offset="100%"/>
      </linearGradient>
      <linearGradient x1="130.0907" gradientUnits="userSpaceOnUse" x2="250.0907" y1="244.8118" y2="284.8118" id="linearGradient2" spreadMethod="reflect">
        <stop stop-opacity="1" stop-color="rgb(232,238,247)" offset="0%"/>
        <stop stop-opacity="1" stop-color="rgb(183,201,227)" offset="100%"/>
      </linearGradient>
      <linearGradient x1="130.0907" gradientUnits="userSpaceOnUse" x2="250.0907" y1="314.8118" y2="354.8118" id="linearGradient3" spreadMethod="reflect">
        <stop stop-opacity="1" stop-color="rgb(232,238,247)" offset="0%"/>
        <stop stop-opacity="1" stop-color="rgb(183,201,227)" offset="100%"/>
      </linearGradient>
      <linearGradient x1="130.0907" gradientUnits="userSpaceOnUse" x2="250.0907" y1="384.8118" y2="424.8118" id="linearGradient4" spreadMethod="reflect">
        <stop stop-opacity="1" stop-color="rgb(232,238,247)" offset="0%"/>
        <stop stop-opacity="1" stop-color="rgb(183,201,227)" offset="100%"/>
      </linearGradient>
      <linearGradient x1="108.4907" gradientUnits="userSpaceOnUse" x2="271.6906" y1="194.8118" y2="214.8118" id="linearGradient5" spreadMethod="reflect">
        <stop stop-opacity="1" stop-color="rgb(232,238,247)" offset="0%"/>
        <stop stop-opacity="1" stop-color="rgb(183,201,227)" offset="100%"/>
      </linearGradient>
      <linearGradient x1="108.4907" gradientUnits="userSpaceOnUse" x2="271.6906" y1="454.8118" y2="474.8118" id="linearGradient6" spreadMethod="reflect">
        <stop stop-opacity="1" stop-color="rgb(232,238,247)" offset="0%"/>
        <stop stop-opacity="1" stop-color="rgb(183,201,227)" offset="100%"/>
      </linearGradient>
      <linearGradient x1="150.0907" gradientUnits="userSpaceOnUse" x2="230.0907" y1="504.8118" y2="544.8118" id="linearGradient7" spreadMethod="reflect">
        <stop stop-opacity="1" stop-color="rgb(255,153,204)" offset="0%"/>
        <stop stop-opacity="1" stop-color="red" offset="100%"/>
      </linearGradient>
      <linearGradient x1="128.4907" gradientUnits="userSpaceOnUse" x2="208.4907" y1="-418.3085" y2="-378.3085" id="linearGradient8" spreadMethod="reflect">
        <stop stop-opacity="1" stop-color="rgb(204,255,204)" offset="0%"/>
        <stop stop-opacity="1" stop-color="rgb(51,153,102)" offset="100%"/>
      </linearGradient>
      <linearGradient x1="108.4907" gradientUnits="userSpaceOnUse" x2="228.4907" y1="-167.0615" y2="-127.0615" id="linearGradient9" spreadMethod="reflect">
        <stop stop-opacity="1" stop-color="rgb(232,238,247)" offset="0%"/>
        <stop stop-opacity="1" stop-color="rgb(183,201,227)" offset="100%"/>
      </linearGradient>
      <linearGradient x1="128.4907" gradientUnits="userSpaceOnUse" x2="208.4907" y1="-97.0615" y2="-57.0615" id="linearGradient10" spreadMethod="reflect">
        <stop stop-opacity="1" stop-color="rgb(255,153,204)" offset="0%"/>
        <stop stop-opacity="1" stop-color="red" offset="100%"/>
      </linearGradient>
      <linearGradient x1="310.0313" gradientUnits="userSpaceOnUse" x2="471.2813" y1="-167.0615" y2="-127.0615" id="linearGradient11" spreadMethod="reflect">
        <stop stop-opacity="1" stop-color="rgb(232,238,247)" offset="0%"/>
        <stop stop-opacity="1" stop-color="rgb(183,201,227)" offset="100%"/>
      </linearGradient>
      <linearGradient x1="108.4907" gradientUnits="userSpaceOnUse" x2="228.4907" y1="-355.4968" y2="-315.4968" id="linearGradient12" spreadMethod="reflect">
        <stop stop-opacity="1" stop-color="rgb(232,238,247)" offset="0%"/>
        <stop stop-opacity="1" stop-color="rgb(183,201,227)" offset="100%"/>
      </linearGradient>
      <linearGradient x1="310.0313" gradientUnits="userSpaceOnUse" x2="471.2813" y1="-355.4968" y2="-315.4968" id="linearGradient13" spreadMethod="reflect">
        <stop stop-opacity="1" stop-color="rgb(232,238,247)" offset="0%"/>
        <stop stop-opacity="1" stop-color="rgb(183,201,227)" offset="100%"/>
      </linearGradient>
      <linearGradient x1="108.4907" gradientUnits="userSpaceOnUse" x2="228.4907" y1="-292.685" y2="-252.685" id="linearGradient14" spreadMethod="reflect">
        <stop stop-opacity="1" stop-color="rgb(232,238,247)" offset="0%"/>
        <stop stop-opacity="1" stop-color="rgb(183,201,227)" offset="100%"/>
      </linearGradient>
      <linearGradient x1="310.0313" gradientUnits="userSpaceOnUse" x2="471.2813" y1="-292.685" y2="-252.685" id="linearGradient15" spreadMethod="reflect">
        <stop stop-opacity="1" stop-color="rgb(232,238,247)" offset="0%"/>
        <stop stop-opacity="1" stop-color="rgb(183,201,227)" offset="100%"/>
      </linearGradient>
      <linearGradient x1="108.4907" gradientUnits="userSpaceOnUse" x2="228.4907" y1="-229.8732" y2="-189.8732" id="linearGradient16" spreadMethod="reflect">
        <stop stop-opacity="1" stop-color="rgb(232,238,247)" offset="0%"/>
        <stop stop-opacity="1" stop-color="rgb(183,201,227)" offset="100%"/>
      </linearGradient>
      <linearGradient x1="310.0313" gradientUnits="userSpaceOnUse" x2="471.2813" y1="-229.8732" y2="-189.8732" id="linearGradient17" spreadMethod="reflect">
        <stop stop-opacity="1" stop-color="rgb(232,238,247)" offset="0%"/>
        <stop stop-opacity="1" stop-color="rgb(183,201,227)" offset="100%"/>
      </linearGradient>
      <linearGradient x1="457.9564" gradientUnits="userSpaceOnUse" x2="537.9564" y1="134.8118" y2="174.8118" id="linearGradient18" spreadMethod="reflect">
        <stop stop-opacity="1" stop-color="rgb(204,255,204)" offset="0%"/>
        <stop stop-opacity="1" stop-color="rgb(51,153,102)" offset="100%"/>
      </linearGradient>
      <linearGradient x1="437.9564" gradientUnits="userSpaceOnUse" x2="557.9564" y1="234.8118" y2="274.8118" id="linearGradient19" spreadMethod="reflect">
        <stop stop-opacity="1" stop-color="rgb(232,238,247)" offset="0%"/>
        <stop stop-opacity="1" stop-color="rgb(183,201,227)" offset="100%"/>
      </linearGradient>
      <linearGradient x1="457.9564" gradientUnits="userSpaceOnUse" x2="537.9564" y1="514.8118" y2="554.8118" id="linearGradient20" spreadMethod="reflect">
        <stop stop-opacity="1" stop-color="rgb(255,153,204)" offset="0%"/>
        <stop stop-opacity="1" stop-color="red" offset="100%"/>
      </linearGradient>
      <linearGradient x1="437.9564" gradientUnits="userSpaceOnUse" x2="557.9564" y1="294.8118" y2="334.8118" id="linearGradient21" spreadMethod="reflect">
        <stop stop-opacity="1" stop-color="rgb(232,238,247)" offset="0%"/>
        <stop stop-opacity="1" stop-color="rgb(183,201,227)" offset="100%"/>
      </linearGradient>
      <linearGradient x1="437.9564" gradientUnits="userSpaceOnUse" x2="557.9564" y1="394.8118" y2="434.8118" id="linearGradient22" spreadMethod="reflect">
        <stop stop-opacity="1" stop-color="rgb(232,238,247)" offset="0%"/>
        <stop stop-opacity="1" stop-color="rgb(183,201,227)" offset="100%"/>
      </linearGradient>
      <linearGradient x1="437.9564" gradientUnits="userSpaceOnUse" x2="557.9564" y1="454.8118" y2="494.8118" id="linearGradient23" spreadMethod="reflect">
        <stop stop-opacity="1" stop-color="rgb(232,238,247)" offset="0%"/>
        <stop stop-opacity="1" stop-color="rgb(183,201,227)" offset="100%"/>
      </linearGradient>
      <linearGradient x1="416.3564" gradientUnits="userSpaceOnUse" x2="579.5564" y1="194.8118" y2="214.8118" id="linearGradient24" spreadMethod="reflect">
        <stop stop-opacity="1" stop-color="rgb(232,238,247)" offset="0%"/>
        <stop stop-opacity="1" stop-color="rgb(183,201,227)" offset="100%"/>
      </linearGradient>
      <linearGradient x1="416.3564" gradientUnits="userSpaceOnUse" x2="579.5564" y1="354.8118" y2="374.8118" id="linearGradient25" spreadMethod="reflect">
        <stop stop-opacity="1" stop-color="rgb(232,238,247)" offset="0%"/>
        <stop stop-opacity="1" stop-color="rgb(183,201,227)" offset="100%"/>
      </linearGradient>
      <linearGradient x1="694.2221" gradientUnits="userSpaceOnUse" x2="774.2221" y1="134.8118" y2="174.8118" id="linearGradient26" spreadMethod="reflect">
        <stop stop-opacity="1" stop-color="rgb(204,255,204)" offset="0%"/>
        <stop stop-opacity="1" stop-color="rgb(51,153,102)" offset="100%"/>
      </linearGradient>
      <linearGradient x1="694.2221" gradientUnits="userSpaceOnUse" x2="774.2221" y1="434.8118" y2="474.8118" id="linearGradient27" spreadMethod="reflect">
        <stop stop-opacity="1" stop-color="rgb(255,153,204)" offset="0%"/>
        <stop stop-opacity="1" stop-color="red" offset="100%"/>
      </linearGradient>
      <linearGradient x1="664.2221" gradientUnits="userSpaceOnUse" x2="804.2221" y1="194.8118" y2="234.8118" id="linearGradient28" spreadMethod="reflect">
        <stop stop-opacity="1" stop-color="rgb(232,238,247)" offset="0%"/>
        <stop stop-opacity="1" stop-color="rgb(183,201,227)" offset="100%"/>
      </linearGradient>
      <linearGradient x1="664.2221" gradientUnits="userSpaceOnUse" x2="804.2221" y1="254.8118" y2="294.8118" id="linearGradient29" spreadMethod="reflect">
        <stop stop-opacity="1" stop-color="rgb(232,238,247)" offset="0%"/>
        <stop stop-opacity="1" stop-color="rgb(183,201,227)" offset="100%"/>
      </linearGradient>
      <linearGradient x1="664.2221" gradientUnits="userSpaceOnUse" x2="804.2221" y1="314.8118" y2="354.8118" id="linearGradient30" spreadMethod="reflect">
        <stop stop-opacity="1" stop-color="rgb(232,238,247)" offset="0%"/>
        <stop stop-opacity="1" stop-color="rgb(183,201,227)" offset="100%"/>
      </linearGradient>
      <linearGradient x1="664.2221" gradientUnits="userSpaceOnUse" x2="804.2221" y1="374.8118" y2="414.8118" id="linearGradient31" spreadMethod="reflect">
        <stop stop-opacity="1" stop-color="rgb(232,238,247)" offset="0%"/>
        <stop stop-opacity="1" stop-color="rgb(183,201,227)" offset="100%"/>
      </linearGradient>
      <linearGradient x1="908.8878" gradientUnits="userSpaceOnUse" x2="988.8878" y1="124.8118" y2="164.8118" id="linearGradient32" spreadMethod="reflect">
        <stop stop-opacity="1" stop-color="rgb(204,255,204)" offset="0%"/>
        <stop stop-opacity="1" stop-color="rgb(51,153,102)" offset="100%"/>
      </linearGradient>
      <linearGradient x1="888.8878" gradientUnits="userSpaceOnUse" x2="1008.8878" y1="184.8118" y2="224.8118" id="linearGradient33" spreadMethod="reflect">
        <stop stop-opacity="1" stop-color="rgb(232,238,247)" offset="0%"/>
        <stop stop-opacity="1" stop-color="rgb(183,201,227)" offset="100%"/>
      </linearGradient>
      <linearGradient x1="908.8878" gradientUnits="userSpaceOnUse" x2="988.8878" y1="364.8118" y2="404.8118" id="linearGradient34" spreadMethod="reflect">
        <stop stop-opacity="1" stop-color="rgb(255,153,204)" offset="0%"/>
        <stop stop-opacity="1" stop-color="red" offset="100%"/>
      </linearGradient>
      <linearGradient x1="888.8878" gradientUnits="userSpaceOnUse" x2="1008.8878" y1="244.8118" y2="284.8118" id="linearGradient35" spreadMethod="reflect">
        <stop stop-opacity="1" stop-color="rgb(232,238,247)" offset="0%"/>
        <stop stop-opacity="1" stop-color="rgb(183,201,227)" offset="100%"/>
      </linearGradient>
      <linearGradient x1="888.8878" gradientUnits="userSpaceOnUse" x2="1008.8878" y1="304.8118" y2="344.8118" id="linearGradient36" spreadMethod="reflect">
        <stop stop-opacity="1" stop-color="rgb(232,238,247)" offset="0%"/>
        <stop stop-opacity="1" stop-color="rgb(183,201,227)" offset="100%"/>
      </linearGradient>
      <clipPath clipPathUnits="userSpaceOnUse" id="clipPath1">
        <path d="M0 0 L991 0 L991 1086 L0 1086 L0 0 Z"/>
      </clipPath>
      <clipPath clipPathUnits="userSpaceOnUse" id="clipPath2">
        <path d="M63 -486 L1054 -486 L1054 600 L63 600 L63 -486 Z"/>
      </clipPath>
      <clipPath clipPathUnits="userSpaceOnUse" id="clipPath3">
        <path d="M312.0313 -163.1552 L312.0313 -130.9677 L469.2813 -130.9677 L469.2813 -163.1552 Z"/>
      </clipPath>
      <clipPath clipPathUnits="userSpaceOnUse" id="clipPath4">
        <path d="M312.0313 -344.0436 L312.0313 -326.9499 L469.2813 -326.9499 L469.2813 -344.0436 Z"/>
      </clipPath>
      <clipPath clipPathUnits="userSpaceOnUse" id="clipPath5">
        <path d="M312.0313 -281.2319 L312.0313 -264.1381 L469.2813 -264.1381 L469.2813 -281.2319 Z"/>
      </clipPath>
      <clipPath clipPathUnits="userSpaceOnUse" id="clipPath6">
        <path d="M312.0313 -218.4201 L312.0313 -201.3264 L469.2813 -201.3264 L469.2813 -218.4201 Z"/>
      </clipPath>
    </defs>
    <g fill="white" text-rendering="geometricPrecision" shape-rendering="geometricPrecision" transform="translate(-63,486)" stroke="white">
      <rect x="63" width="991" height="1086" y="-486" clip-path="url(#clipPath2)" stroke="none"/>
    </g>
    <g fill="rgb(245,245,245)" text-rendering="geometricPrecision" shape-rendering="geometricPrecision" transform="matrix(1,0,0,1,-63,486)" stroke="rgb(245,245,245)">
      <rect x="78.4907" y="72.4353" clip-path="url(#clipPath2)" width="223.2" rx="4" ry="4" height="502.3765" stroke="none"/>
      <rect x="78.4907" y="72.4353" clip-path="url(#clipPath2)" fill="rgb(235,235,235)" width="223.2" height="22.3765" stroke="none"/>
    </g>
    <g font-size="15px" stroke-linecap="butt" transform="matrix(1,0,0,1,-63,486)" text-rendering="geometricPrecision" font-family="sans-serif" shape-rendering="geometricPrecision" stroke-miterlimit="1.45">
      <text x="261.341" xml:space="preserve" y="89.5159" clip-path="url(#clipPath2)" stroke="none">loop()</text>
      <rect x="78.4907" y="72.4353" clip-path="url(#clipPath2)" fill="none" width="223.2" rx="4" ry="4" height="502.3765"/>
      <path fill="none" d="M190.0907 214.802 L190.0907 236.8372" clip-path="url(#clipPath2)"/>
      <path d="M190.0907 244.8372 L195.0907 232.8372 L190.0907 235.8372 L185.0907 232.8372 Z" stroke="none" clip-path="url(#clipPath2)"/>
      <path fill="none" stroke-dasharray="6,2" d="M250.1226 264.8118 L366.3564 264.8118 L366.3564 52.4353 L497.9564 52.4353 L497.9564 72.4279" clip-path="url(#clipPath2)"/>
      <path fill="none" d="M190.0907 284.8069 L190.0907 306.8391" clip-path="url(#clipPath2)"/>
      <path d="M190.0907 314.8391 L195.0907 302.8391 L190.0907 305.8391 L185.0907 302.8391 Z" stroke="none" clip-path="url(#clipPath2)"/>
      <path fill="none" stroke-dasharray="6,2" d="M250.1019 334.8118 L346.3564 334.8118 L346.3564 36.3416 L734.2221 36.3416 L734.2221 72.4654" clip-path="url(#clipPath2)"/>
      <path fill="none" d="M190.0907 354.8069 L190.0907 376.8391" clip-path="url(#clipPath2)"/>
      <path d="M190.0907 384.8391 L195.0907 372.8391 L190.0907 375.8391 L185.0907 372.8391 Z" stroke="none" clip-path="url(#clipPath2)"/>
      <path fill="none" stroke-dasharray="6,2" d="M250.108 404.8118 L326.1344 404.8118 L326.1344 16.3416 L948.8878 16.3416 L948.8878 72.4469" clip-path="url(#clipPath2)"/>
      <path fill="none" d="M190.0907 164.8154 L190.0907 186.7736" clip-path="url(#clipPath2)"/>
      <path d="M190.0907 194.7736 L195.0907 182.7736 L190.0907 185.7736 L185.0907 182.7736 Z" stroke="none" clip-path="url(#clipPath2)"/>
      <path fill="none" d="M108.4832 464.8118 L88.4907 464.8118 L88.4907 204.8118 L100.4832 204.8118" clip-path="url(#clipPath2)"/>
      <path d="M108.4832 204.8118 L96.4832 199.8118 L99.4832 204.8118 L96.4832 209.8118 Z" stroke="none" clip-path="url(#clipPath2)"/>
      <path fill="none" d="M190.0907 424.8215 L190.0907 446.7751" clip-path="url(#clipPath2)"/>
      <path d="M190.0907 454.7751 L195.0907 442.7751 L190.0907 445.7751 L185.0907 442.7751 Z" stroke="none" clip-path="url(#clipPath2)"/>
      <path fill="none" stroke-dasharray="6,2" d="M190.0907 474.802 L190.0907 496.8372" clip-path="url(#clipPath2)"/>
      <path stroke-dasharray="6,2" d="M190.0907 504.8372 L195.0907 492.8372 L190.0907 495.8372 L185.0907 492.8372 Z" clip-path="url(#clipPath2)" stroke="none"/>
    </g>
    <g fill="url(#linearGradient1)" text-rendering="geometricPrecision" shape-rendering="geometricPrecision" transform="matrix(1,0,0,1,-63,486)" stroke="url(#linearGradient1)">
      <circle r="20" clip-path="url(#clipPath2)" cx="190.0907" cy="144.8118" stroke="none"/>
    </g>
    <g text-rendering="geometricPrecision" stroke-miterlimit="1.45" shape-rendering="geometricPrecision" transform="matrix(1,0,0,1,-63,486)" stroke-linecap="butt">
      <circle fill="none" r="20" clip-path="url(#clipPath2)" cx="190.0907" cy="144.8118"/>
    </g>
    <g fill="url(#linearGradient2)" text-rendering="geometricPrecision" shape-rendering="geometricPrecision" transform="matrix(1,0,0,1,-63,486)" stroke="url(#linearGradient2)">
      <path d="M130.0907 244.8118 L250.0907 244.8118 L250.0907 284.8118 L130.0907 284.8118 Z" stroke="none" clip-path="url(#clipPath2)"/>
    </g>
    <g text-rendering="geometricPrecision" stroke-miterlimit="1.45" shape-rendering="geometricPrecision" transform="matrix(1,0,0,1,-63,486)" stroke-linecap="butt">
      <path fill="none" d="M130.0907 244.8118 L250.0907 244.8118 L250.0907 284.8118 L130.0907 284.8118 Z" clip-path="url(#clipPath2)"/>
      <text x="162.408" xml:space="preserve" y="269.5256" clip-path="url(#clipPath2)" font-family="sans-serif" stroke="none">Get Inputs</text>
    </g>
    <g fill="url(#linearGradient3)" text-rendering="geometricPrecision" shape-rendering="geometricPrecision" transform="matrix(1,0,0,1,-63,486)" stroke="url(#linearGradient3)">
      <path d="M130.0907 314.8118 L250.0907 314.8118 L250.0907 354.8118 L130.0907 354.8118 Z" stroke="none" clip-path="url(#clipPath2)"/>
    </g>
    <g text-rendering="geometricPrecision" stroke-miterlimit="1.45" shape-rendering="geometricPrecision" transform="matrix(1,0,0,1,-63,486)" stroke-linecap="butt">
      <path fill="none" d="M130.0907 314.8118 L250.0907 314.8118 L250.0907 354.8118 L130.0907 354.8118 Z" clip-path="url(#clipPath2)"/>
      <text x="149.075" xml:space="preserve" y="339.5256" clip-path="url(#clipPath2)" font-family="sans-serif" stroke="none">Run Algorithms</text>
    </g>
    <g fill="url(#linearGradient4)" text-rendering="geometricPrecision" shape-rendering="geometricPrecision" transform="matrix(1,0,0,1,-63,486)" stroke="url(#linearGradient4)">
      <path d="M130.0907 384.8118 L250.0907 384.8118 L250.0907 424.8118 L130.0907 424.8118 Z" stroke="none" clip-path="url(#clipPath2)"/>
    </g>
    <g text-rendering="geometricPrecision" stroke-miterlimit="1.45" shape-rendering="geometricPrecision" transform="matrix(1,0,0,1,-63,486)" stroke-linecap="butt">
      <path fill="none" d="M130.0907 384.8118 L250.0907 384.8118 L250.0907 424.8118 L130.0907 424.8118 Z" clip-path="url(#clipPath2)"/>
      <text x="158.4061" xml:space="preserve" y="409.5256" clip-path="url(#clipPath2)" font-family="sans-serif" stroke="none">Set Outputs</text>
    </g>
    <g fill="url(#linearGradient5)" text-rendering="geometricPrecision" shape-rendering="geometricPrecision" transform="matrix(1,0,0,1,-63,486)" stroke="url(#linearGradient5)">
      <path d="M118.4907 194.8118 L261.6906 194.8118 L271.6906 204.8118 L271.6906 214.8118 L108.4907 214.8118 L108.4907 204.8118 Z" stroke="none" clip-path="url(#clipPath2)"/>
    </g>
    <g text-rendering="geometricPrecision" stroke-miterlimit="1.45" shape-rendering="geometricPrecision" transform="matrix(1,0,0,1,-63,486)" stroke-linecap="butt">
      <path fill="none" d="M118.4907 194.8118 L261.6906 194.8118 L271.6906 204.8118 L271.6906 214.8118 L108.4907 214.8118 L108.4907 204.8118 Z" clip-path="url(#clipPath2)"/>
    </g>
    <g fill="url(#linearGradient6)" text-rendering="geometricPrecision" shape-rendering="geometricPrecision" transform="matrix(1,0,0,1,-63,486)" stroke="url(#linearGradient6)">
      <path d="M108.4907 454.8118 L271.6906 454.8118 L271.6906 464.8118 L261.6906 474.8118 L118.4907 474.8118 L108.4907 464.8118 Z" stroke="none" clip-path="url(#clipPath2)"/>
    </g>
    <g text-rendering="geometricPrecision" stroke-miterlimit="1.45" shape-rendering="geometricPrecision" transform="matrix(1,0,0,1,-63,486)" stroke-linecap="butt">
      <path fill="none" d="M108.4907 454.8118 L271.6906 454.8118 L271.6906 464.8118 L261.6906 474.8118 L118.4907 474.8118 L108.4907 464.8118 Z" clip-path="url(#clipPath2)"/>
    </g>
    <g fill="url(#linearGradient7)" text-rendering="geometricPrecision" shape-rendering="geometricPrecision" transform="matrix(1,0,0,1,-63,486)" stroke="url(#linearGradient7)">
      <circle r="20" clip-path="url(#clipPath2)" cx="190.0907" cy="524.8118" stroke="none"/>
    </g>
    <g text-rendering="geometricPrecision" stroke-miterlimit="1.45" shape-rendering="geometricPrecision" transform="matrix(1,0,0,1,-63,486)" stroke-linecap="butt">
      <circle fill="none" r="20" clip-path="url(#clipPath2)" cx="190.0907" cy="524.8118"/>
    </g>
    <g fill="rgb(245,245,245)" text-rendering="geometricPrecision" shape-rendering="geometricPrecision" transform="matrix(1,0,0,1,-63,486)" stroke="rgb(245,245,245)">
      <rect x="78.4907" y="-470.685" clip-path="url(#clipPath2)" width="422.7907" rx="4" ry="4" height="443.6235" stroke="none"/>
      <rect x="78.4907" y="-470.685" clip-path="url(#clipPath2)" fill="rgb(235,235,235)" width="422.7907" height="22.3765" stroke="none"/>
    </g>
    <g font-size="15px" stroke-linecap="butt" transform="matrix(1,0,0,1,-63,486)" text-rendering="geometricPrecision" font-family="sans-serif" shape-rendering="geometricPrecision" stroke-miterlimit="1.45">
      <text x="452.5967" xml:space="preserve" y="-453.6044" clip-path="url(#clipPath2)" stroke="none">setup()</text>
      <rect x="78.4907" y="-470.685" clip-path="url(#clipPath2)" fill="none" width="422.7907" rx="4" ry="4" height="443.6235"/>
      <path fill="none" d="M168.4907 -189.8459 L168.4907 -178.4674 L165.6575 -178.4674 L165.6575 -175.0889" clip-path="url(#clipPath2)"/>
      <path d="M165.6575 -167.0889 L170.6575 -179.0889 L165.6575 -176.0889 L160.6575 -179.0889 Z" stroke="none" clip-path="url(#clipPath2)"/>
      <path fill="none" d="M168.4907 -127.0664 L168.4907 -105.0341" clip-path="url(#clipPath2)"/>
      <path d="M168.4907 -97.0341 L173.4907 -109.0341 L168.4907 -106.0341 L163.4907 -109.0341 Z" stroke="none" clip-path="url(#clipPath2)"/>
      <path fill="none" stroke-dasharray="6,2" d="M228.5068 -147.0615 L310.017 -147.0615" clip-path="url(#clipPath2)"/>
      <path fill="none" d="M168.4907 -378.2812 L168.4907 -363.5102" clip-path="url(#clipPath2)"/>
      <path d="M168.4907 -355.5102 L173.4907 -367.5102 L168.4907 -364.5102 L163.4907 -367.5102 Z" stroke="none" clip-path="url(#clipPath2)"/>
      <path fill="none" stroke-dasharray="6,2" d="M228.5068 -335.4968 L310.017 -335.4968" clip-path="url(#clipPath2)"/>
      <path fill="none" d="M168.4907 -315.4694 L168.4907 -304.0909 L166.6575 -304.0909 L166.6575 -300.7124" clip-path="url(#clipPath2)"/>
      <path d="M166.6575 -292.7124 L171.6575 -304.7124 L166.6575 -301.7124 L161.6575 -304.7124 Z" stroke="none" clip-path="url(#clipPath2)"/>
      <path fill="none" stroke-dasharray="6,2" d="M228.5068 -272.685 L310.017 -272.685" clip-path="url(#clipPath2)"/>
      <path fill="none" d="M168.4907 -252.6576 L168.4907 -241.2791 L166.6575 -241.2791 L166.6575 -237.9006" clip-path="url(#clipPath2)"/>
      <path d="M166.6575 -229.9006 L171.6575 -241.9006 L166.6575 -238.9006 L161.6575 -241.9006 Z" stroke="none" clip-path="url(#clipPath2)"/>
      <path fill="none" stroke-dasharray="6,2" d="M228.5068 -209.8732 L310.017 -209.8732" clip-path="url(#clipPath2)"/>
    </g>
    <g fill="url(#linearGradient8)" text-rendering="geometricPrecision" shape-rendering="geometricPrecision" transform="matrix(1,0,0,1,-63,486)" stroke="url(#linearGradient8)">
      <circle r="20" clip-path="url(#clipPath2)" cx="168.4907" cy="-398.3085" stroke="none"/>
    </g>
    <g text-rendering="geometricPrecision" stroke-miterlimit="1.45" shape-rendering="geometricPrecision" transform="matrix(1,0,0,1,-63,486)" stroke-linecap="butt">
      <circle fill="none" r="20" clip-path="url(#clipPath2)" cx="168.4907" cy="-398.3085"/>
    </g>
    <g fill="url(#linearGradient9)" text-rendering="geometricPrecision" shape-rendering="geometricPrecision" transform="matrix(1,0,0,1,-63,486)" stroke="url(#linearGradient9)">
      <path d="M108.4907 -167.0615 L228.4907 -167.0615 L228.4907 -127.0615 L108.4907 -127.0615 Z" stroke="none" clip-path="url(#clipPath2)"/>
    </g>
    <g text-rendering="geometricPrecision" stroke-miterlimit="1.45" shape-rendering="geometricPrecision" transform="matrix(1,0,0,1,-63,486)" stroke-linecap="butt">
      <path fill="none" d="M108.4907 -167.0615 L228.4907 -167.0615 L228.4907 -127.0615 L108.4907 -127.0615 Z" clip-path="url(#clipPath2)"/>
      <text x="150.8188" xml:space="preserve" y="-149.6982" clip-path="url(#clipPath2)" font-family="sans-serif" stroke="none">Init I/O</text>
      <text x="142.8061" xml:space="preserve" y="-134.997" clip-path="url(#clipPath2)" font-family="sans-serif" stroke="none">Expander</text>
    </g>
    <g fill="url(#linearGradient10)" text-rendering="geometricPrecision" shape-rendering="geometricPrecision" transform="matrix(1,0,0,1,-63,486)" stroke="url(#linearGradient10)">
      <circle r="20" clip-path="url(#clipPath2)" cx="168.4907" cy="-77.0615" stroke="none"/>
    </g>
    <g text-rendering="geometricPrecision" stroke-miterlimit="1.45" shape-rendering="geometricPrecision" transform="matrix(1,0,0,1,-63,486)" stroke-linecap="butt">
      <circle fill="none" r="20" clip-path="url(#clipPath2)" cx="168.4907" cy="-77.0615"/>
    </g>
    <g fill="url(#linearGradient11)" text-rendering="geometricPrecision" shape-rendering="geometricPrecision" transform="matrix(1,0,0,1,-63,486)" stroke="url(#linearGradient11)">
      <rect x="310.0313" width="161.25" height="40" y="-167.0615" clip-path="url(#clipPath2)" stroke="none"/>
    </g>
    <g text-rendering="geometricPrecision" stroke-miterlimit="1.45" shape-rendering="geometricPrecision" transform="matrix(1,0,0,1,-63,486)" stroke-linecap="butt">
      <path fill="none" d="M330.1876 -167.0615 L310.0313 -167.0615 L310.0313 -127.0615 L330.1876 -127.0615" clip-path="url(#clipPath2)"/>
      <path stroke-miterlimit="10" d="M313.1563 -151.0908 L313.1563 -159.6845 L314.2813 -159.6845 L314.2813 -151.0908 L313.1563 -151.0908 ZM316.1622 -151.0908 L316.1622 -157.3095 L317.0997 -157.3095 L317.0997 -156.4345 Q317.7872 -157.4501 319.084 -157.4501 Q319.6465 -157.4501 320.1231 -157.247 Q320.5997 -157.0439 320.834 -156.7158 Q321.0684 -156.3876 321.1622 -155.9501 Q321.209 -155.6533 321.209 -154.9189 L321.209 -151.0908 L320.1622 -151.0908 L320.1622 -154.872 Q320.1622 -155.5283 320.0372 -155.8408 Q319.9122 -156.1533 319.5997 -156.3486 Q319.2872 -156.5439 318.8653 -156.5439 Q318.1934 -156.5439 317.7012 -156.1142 Q317.209 -155.6845 317.209 -154.497 L317.209 -151.0908 L316.1622 -151.0908 ZM322.4141 -152.9501 L323.4454 -153.1064 Q323.5391 -152.4814 323.9376 -152.1533 Q324.336 -151.8251 325.0704 -151.8251 Q325.7891 -151.8251 326.1407 -152.1142 Q326.4922 -152.4033 326.4922 -152.8095 Q326.4922 -153.1689 326.1797 -153.372 Q325.961 -153.5126 325.1016 -153.7314 Q323.9454 -154.0283 323.5001 -154.2392 Q323.0547 -154.4501 322.8204 -154.8251 Q322.586 -155.2001 322.586 -155.6689 Q322.586 -156.0751 322.7735 -156.4345 Q322.961 -156.7939 323.2891 -157.0283 Q323.5391 -157.2001 323.961 -157.3251 Q324.3829 -157.4501 324.8829 -157.4501 Q325.6016 -157.4501 326.1563 -157.2392 Q326.711 -157.0283 326.9766 -156.6689 Q327.2422 -156.3095 327.336 -155.7158 L326.3047 -155.5751 Q326.2422 -156.0439 325.9063 -156.3173 Q325.5704 -156.5908 324.9454 -156.5908 Q324.2266 -156.5908 323.9141 -156.3486 Q323.6016 -156.1064 323.6016 -155.7783 Q323.6016 -155.5751 323.7266 -155.4189 Q323.8672 -155.247 324.1329 -155.1376 Q324.2891 -155.0751 325.0704 -154.872 Q326.1954 -154.5595 326.6329 -154.372 Q327.0704 -154.1845 327.3204 -153.8251 Q327.5704 -153.4658 327.5704 -152.9189 Q327.5704 -152.3876 327.2657 -151.9267 Q326.961 -151.4658 326.3829 -151.208 Q325.8047 -150.9501 325.0704 -150.9501 Q323.8516 -150.9501 323.2188 -151.458 Q322.586 -151.9658 322.4141 -152.9501 ZM328.0391 -150.9501 L330.5235 -159.8251 L331.3672 -159.8251 L328.8829 -150.9501 L328.0391 -150.9501 ZM331.9512 -155.2783 Q331.9512 -157.4189 333.0997 -158.6298 Q334.2481 -159.8408 336.0606 -159.8408 Q337.2637 -159.8408 338.2169 -159.2705 Q339.17 -158.7001 339.67 -157.6845 Q340.17 -156.6689 340.17 -155.372 Q340.17 -154.0751 339.6387 -153.0439 Q339.1075 -152.0126 338.1465 -151.4814 Q337.1856 -150.9501 336.0606 -150.9501 Q334.8419 -150.9501 333.8887 -151.5361 Q332.9356 -152.122 332.4434 -153.1298 Q331.9512 -154.1376 331.9512 -155.2783 ZM333.1231 -155.2626 Q333.1231 -153.7001 333.959 -152.8095 Q334.795 -151.9189 336.0606 -151.9189 Q337.3419 -151.9189 338.17 -152.8173 Q338.9981 -153.7158 338.9981 -155.3876 Q338.9981 -156.4345 338.6465 -157.2158 Q338.295 -157.997 337.6075 -158.4267 Q336.92 -158.8564 336.0762 -158.8564 Q334.8731 -158.8564 333.9981 -158.0283 Q333.1231 -157.2001 333.1231 -155.2626 ZM345.5821 -151.0908 L345.5821 -152.0126 Q344.8477 -150.9501 343.5977 -150.9501 Q343.0508 -150.9501 342.5743 -151.1611 Q342.0977 -151.372 341.8633 -151.6923 Q341.629 -152.0126 341.5352 -152.4814 Q341.4727 -152.7783 341.4727 -153.4658 L341.4727 -157.3095 L342.5352 -157.3095 L342.5352 -153.8564 Q342.5352 -153.0439 342.5977 -152.747 Q342.6915 -152.3408 343.0118 -152.0986 Q343.3321 -151.8564 343.8165 -151.8564 Q344.2852 -151.8564 344.6993 -152.0986 Q345.1133 -152.3408 345.293 -152.7626 Q345.4727 -153.1845 345.4727 -153.9814 L345.4727 -157.3095 L346.5196 -157.3095 L346.5196 -151.0908 L345.5821 -151.0908 ZM350.4747 -152.0283 L350.6309 -151.1064 Q350.1778 -151.0126 349.834 -151.0126 Q349.2559 -151.0126 348.9434 -151.1923 Q348.6309 -151.372 348.4981 -151.6689 Q348.3653 -151.9658 348.3653 -152.9189 L348.3653 -156.497 L347.5997 -156.497 L347.5997 -157.3095 L348.3653 -157.3095 L348.3653 -158.8564 L349.4122 -159.4814 L349.4122 -157.3095 L350.4747 -157.3095 L350.4747 -156.497 L349.4122 -156.497 L349.4122 -152.8564 Q349.4122 -152.4033 349.4669 -152.2783 Q349.5215 -152.1533 349.6465 -152.0751 Q349.7715 -151.997 350.0059 -151.997 Q350.1934 -151.997 350.4747 -152.0283 ZM351.0899 -152.9501 L352.1212 -153.1064 Q352.2149 -152.4814 352.6133 -152.1533 Q353.0118 -151.8251 353.7462 -151.8251 Q354.4649 -151.8251 354.8165 -152.1142 Q355.168 -152.4033 355.168 -152.8095 Q355.168 -153.1689 354.8555 -153.372 Q354.6368 -153.5126 353.7774 -153.7314 Q352.6212 -154.0283 352.1758 -154.2392 Q351.7305 -154.4501 351.4962 -154.8251 Q351.2618 -155.2001 351.2618 -155.6689 Q351.2618 -156.0751 351.4493 -156.4345 Q351.6368 -156.7939 351.9649 -157.0283 Q352.2149 -157.2001 352.6368 -157.3251 Q353.0587 -157.4501 353.5587 -157.4501 Q354.2774 -157.4501 354.8321 -157.2392 Q355.3868 -157.0283 355.6524 -156.6689 Q355.918 -156.3095 356.0118 -155.7158 L354.9805 -155.5751 Q354.918 -156.0439 354.5821 -156.3173 Q354.2462 -156.5908 353.6212 -156.5908 Q352.9024 -156.5908 352.5899 -156.3486 Q352.2774 -156.1064 352.2774 -155.7783 Q352.2774 -155.5751 352.4024 -155.4189 Q352.543 -155.247 352.8087 -155.1376 Q352.9649 -155.0751 353.7462 -154.872 Q354.8712 -154.5595 355.3087 -154.372 Q355.7462 -154.1845 355.9962 -153.8251 Q356.2462 -153.4658 356.2462 -152.9189 Q356.2462 -152.3876 355.9415 -151.9267 Q355.6368 -151.4658 355.0587 -151.208 Q354.4805 -150.9501 353.7462 -150.9501 Q352.5274 -150.9501 351.8946 -151.458 Q351.2618 -151.9658 351.0899 -152.9501 Z" clip-path="url(#clipPath3)" stroke-linecap="square" stroke="none"/>
      <path stroke-miterlimit="10" d="M312.9532 -135.997 L312.9532 -144.5908 L315.9219 -144.5908 Q316.9219 -144.5908 317.4532 -144.4658 Q318.1876 -144.2939 318.7032 -143.8564 Q319.3907 -143.2783 319.7266 -142.3798 Q320.0626 -141.4814 320.0626 -140.3408 Q320.0626 -139.3564 319.836 -138.6064 Q319.6094 -137.8564 319.2501 -137.3564 Q318.8907 -136.8564 318.461 -136.5751 Q318.0313 -136.2939 317.4376 -136.1455 Q316.8438 -135.997 316.0626 -135.997 L312.9532 -135.997 ZM314.0938 -137.0126 L315.9219 -137.0126 Q316.7813 -137.0126 317.2657 -137.1689 Q317.7501 -137.3251 318.0313 -137.622 Q318.4376 -138.0126 318.6641 -138.7001 Q318.8907 -139.3876 318.8907 -140.3564 Q318.8907 -141.7001 318.4454 -142.4267 Q318.0001 -143.1533 317.3751 -143.4033 Q316.9063 -143.5751 315.9063 -143.5751 L314.0938 -143.5751 L314.0938 -137.0126 ZM325.7442 -137.997 L326.838 -137.872 Q326.588 -136.9189 325.8848 -136.3876 Q325.1817 -135.8564 324.1036 -135.8564 Q322.7442 -135.8564 321.9395 -136.7001 Q321.1348 -137.5439 321.1348 -139.0595 Q321.1348 -140.622 321.9473 -141.4892 Q322.7598 -142.3564 324.0411 -142.3564 Q325.2911 -142.3564 326.0801 -141.5126 Q326.8692 -140.6689 326.8692 -139.122 Q326.8692 -139.0283 326.8692 -138.8408 L322.2286 -138.8408 Q322.2911 -137.8095 322.8067 -137.2705 Q323.3223 -136.7314 324.1036 -136.7314 Q324.6817 -136.7314 325.0958 -137.0361 Q325.5098 -137.3408 325.7442 -137.997 ZM322.2911 -139.7001 L325.7598 -139.7001 Q325.6973 -140.497 325.3692 -140.8876 Q324.8536 -141.497 324.0567 -141.497 Q323.3223 -141.497 322.8301 -141.0126 Q322.338 -140.5283 322.2911 -139.7001 ZM329.1368 -135.997 L328.1524 -135.997 L328.1524 -144.5908 L329.2149 -144.5908 L329.2149 -141.5283 Q329.8868 -142.3564 330.918 -142.3564 Q331.4962 -142.3564 332.004 -142.1298 Q332.5118 -141.9033 332.8477 -141.4814 Q333.1837 -141.0595 333.3712 -140.4658 Q333.5587 -139.872 333.5587 -139.2001 Q333.5587 -137.6064 332.7618 -136.7314 Q331.9649 -135.8564 330.8712 -135.8564 Q329.7618 -135.8564 329.1368 -136.7783 L329.1368 -135.997 ZM329.1212 -139.1533 Q329.1212 -138.0439 329.4337 -137.5439 Q329.9337 -136.7314 330.7774 -136.7314 Q331.4649 -136.7314 331.9727 -137.3251 Q332.4805 -137.9189 332.4805 -139.122 Q332.4805 -140.3408 331.9962 -140.9189 Q331.5118 -141.497 330.8243 -141.497 Q330.1368 -141.497 329.629 -140.8955 Q329.1212 -140.2939 329.1212 -139.1533 ZM334.4512 -139.1064 Q334.4512 -140.8408 335.4044 -141.6689 Q336.2012 -142.3564 337.3575 -142.3564 Q338.6387 -142.3564 339.459 -141.5205 Q340.2794 -140.6845 340.2794 -139.2001 Q340.2794 -137.997 339.92 -137.3095 Q339.5606 -136.622 338.8653 -136.2392 Q338.17 -135.8564 337.3575 -135.8564 Q336.0606 -135.8564 335.2559 -136.6923 Q334.4512 -137.5283 334.4512 -139.1064 ZM335.5294 -139.1064 Q335.5294 -137.9189 336.0528 -137.3251 Q336.5762 -136.7314 337.3575 -136.7314 Q338.1544 -136.7314 338.67 -137.3251 Q339.1856 -137.9189 339.1856 -139.1376 Q339.1856 -140.2939 338.6622 -140.8876 Q338.1387 -141.4814 337.3575 -141.4814 Q336.5762 -141.4814 336.0528 -140.8955 Q335.5294 -140.3095 335.5294 -139.1064 ZM345.5938 -135.997 L345.5938 -136.9189 Q344.8594 -135.8564 343.6094 -135.8564 Q343.0626 -135.8564 342.586 -136.0673 Q342.1094 -136.2783 341.8751 -136.5986 Q341.6407 -136.9189 341.5469 -137.3876 Q341.4844 -137.6845 341.4844 -138.372 L341.4844 -142.2158 L342.5469 -142.2158 L342.5469 -138.7626 Q342.5469 -137.9501 342.6094 -137.6533 Q342.7032 -137.247 343.0235 -137.0048 Q343.3438 -136.7626 343.8282 -136.7626 Q344.2969 -136.7626 344.711 -137.0048 Q345.1251 -137.247 345.3047 -137.6689 Q345.4844 -138.0908 345.4844 -138.8876 L345.4844 -142.2158 L346.5313 -142.2158 L346.5313 -135.997 L345.5938 -135.997 ZM348.1895 -135.997 L348.1895 -142.2158 L349.127 -142.2158 L349.127 -141.3408 Q349.8145 -142.3564 351.1114 -142.3564 Q351.6739 -142.3564 352.1505 -142.1533 Q352.627 -141.9501 352.8614 -141.622 Q353.0958 -141.2939 353.1895 -140.8564 Q353.2364 -140.5595 353.2364 -139.8251 L353.2364 -135.997 L352.1895 -135.997 L352.1895 -139.7783 Q352.1895 -140.4345 352.0645 -140.747 Q351.9395 -141.0595 351.627 -141.2548 Q351.3145 -141.4501 350.8926 -141.4501 Q350.2208 -141.4501 349.7286 -141.0205 Q349.2364 -140.5908 349.2364 -139.4033 L349.2364 -135.997 L348.1895 -135.997 ZM358.9258 -138.2783 L359.9571 -138.1376 Q359.7852 -137.0751 359.0821 -136.4658 Q358.379 -135.8564 357.3633 -135.8564 Q356.0821 -135.8564 355.3087 -136.6923 Q354.5352 -137.5283 354.5352 -139.0908 Q354.5352 -140.0908 354.8712 -140.8486 Q355.2071 -141.6064 355.8868 -141.9814 Q356.5665 -142.3564 357.379 -142.3564 Q358.379 -142.3564 359.0274 -141.8486 Q359.6758 -141.3408 359.8633 -140.3876 L358.8321 -140.2314 Q358.6915 -140.8564 358.3165 -141.1767 Q357.9415 -141.497 357.4102 -141.497 Q356.6133 -141.497 356.1133 -140.9267 Q355.6133 -140.3564 355.6133 -139.122 Q355.6133 -137.8564 356.0977 -137.2939 Q356.5821 -136.7314 357.3477 -136.7314 Q357.9727 -136.7314 358.3868 -137.1064 Q358.8008 -137.4814 358.9258 -138.2783 ZM360.8633 -143.372 L360.8633 -144.5908 L361.9258 -144.5908 L361.9258 -143.372 L360.8633 -143.372 ZM360.8633 -135.997 L360.8633 -142.2158 L361.9258 -142.2158 L361.9258 -135.997 L360.8633 -135.997 ZM363.5294 -135.997 L363.5294 -142.2158 L364.4669 -142.2158 L364.4669 -141.3408 Q365.1544 -142.3564 366.4512 -142.3564 Q367.0137 -142.3564 367.4903 -142.1533 Q367.9669 -141.9501 368.2012 -141.622 Q368.4356 -141.2939 368.5294 -140.8564 Q368.5762 -140.5595 368.5762 -139.8251 L368.5762 -135.997 L367.5294 -135.997 L367.5294 -139.7783 Q367.5294 -140.4345 367.4044 -140.747 Q367.2794 -141.0595 366.9669 -141.2548 Q366.6544 -141.4501 366.2325 -141.4501 Q365.5606 -141.4501 365.0684 -141.0205 Q364.5762 -140.5908 364.5762 -139.4033 L364.5762 -135.997 L363.5294 -135.997 ZM370.0001 -135.4814 L371.0313 -135.3251 Q371.0938 -134.8564 371.3907 -134.6376 Q371.7813 -134.3408 372.4532 -134.3408 Q373.1876 -134.3408 373.586 -134.6376 Q373.9844 -134.9345 374.1251 -135.4501 Q374.2188 -135.7783 374.2032 -136.8095 Q373.5157 -135.997 372.4844 -135.997 Q371.2032 -135.997 370.5001 -136.9267 Q369.7969 -137.8564 369.7969 -139.1376 Q369.7969 -140.0283 370.1172 -140.7861 Q370.4376 -141.5439 371.0469 -141.9501 Q371.6563 -142.3564 372.4844 -142.3564 Q373.5938 -142.3564 374.3126 -141.4658 L374.3126 -142.2158 L375.2813 -142.2158 L375.2813 -136.8408 Q375.2813 -135.3876 374.9844 -134.7783 Q374.6876 -134.1689 374.0469 -133.8173 Q373.4063 -133.4658 372.4688 -133.4658 Q371.3594 -133.4658 370.6719 -133.9658 Q369.9844 -134.4658 370.0001 -135.4814 ZM370.8751 -139.2158 Q370.8751 -137.997 371.3594 -137.4345 Q371.8438 -136.872 372.5782 -136.872 Q373.3126 -136.872 373.8047 -137.4345 Q374.2969 -137.997 374.2969 -139.1845 Q374.2969 -140.3251 373.7891 -140.9033 Q373.2813 -141.4814 372.5626 -141.4814 Q371.8594 -141.4814 371.3672 -140.9111 Q370.8751 -140.3408 370.8751 -139.2158 Z" clip-path="url(#clipPath3)" stroke-linecap="square" stroke="none"/>
    </g>
    <g fill="url(#linearGradient12)" text-rendering="geometricPrecision" shape-rendering="geometricPrecision" transform="matrix(1,0,0,1,-63,486)" stroke="url(#linearGradient12)">
      <path d="M108.4907 -355.4968 L228.4907 -355.4968 L228.4907 -315.4968 L108.4907 -315.4968 Z" stroke="none" clip-path="url(#clipPath2)"/>
    </g>
    <g text-rendering="geometricPrecision" stroke-miterlimit="1.45" shape-rendering="geometricPrecision" transform="matrix(1,0,0,1,-63,486)" stroke-linecap="butt">
      <path fill="none" d="M108.4907 -355.4968 L228.4907 -355.4968 L228.4907 -315.4968 L108.4907 -315.4968 Z" clip-path="url(#clipPath2)"/>
      <text x="143.1459" xml:space="preserve" y="-338.1335" clip-path="url(#clipPath2)" font-family="sans-serif" stroke="none">Init Servo</text>
      <text x="134.8139" xml:space="preserve" y="-323.4323" clip-path="url(#clipPath2)" font-family="sans-serif" stroke="none">Driver Board</text>
    </g>
    <g fill="url(#linearGradient13)" text-rendering="geometricPrecision" shape-rendering="geometricPrecision" transform="matrix(1,0,0,1,-63,486)" stroke="url(#linearGradient13)">
      <rect x="310.0313" width="161.25" height="40" y="-355.4968" clip-path="url(#clipPath2)" stroke="none"/>
    </g>
    <g text-rendering="geometricPrecision" stroke-miterlimit="1.45" shape-rendering="geometricPrecision" transform="matrix(1,0,0,1,-63,486)" stroke-linecap="butt">
      <path fill="none" d="M330.1876 -355.4968 L310.0313 -355.4968 L310.0313 -315.4968 L330.1876 -315.4968" clip-path="url(#clipPath2)"/>
      <path stroke-miterlimit="10" d="M315.1407 -331.9792 L315.1407 -339.5573 L312.3126 -339.5573 L312.3126 -340.5729 L319.1251 -340.5729 L319.1251 -339.5573 L316.2813 -339.5573 L316.2813 -331.9792 L315.1407 -331.9792 ZM324.2364 -331.9792 L324.2364 -332.9011 Q323.502 -331.8386 322.252 -331.8386 Q321.7051 -331.8386 321.2286 -332.0495 Q320.752 -332.2604 320.5176 -332.5807 Q320.2833 -332.9011 320.1895 -333.3698 Q320.127 -333.6667 320.127 -334.3542 L320.127 -338.1979 L321.1895 -338.1979 L321.1895 -334.7448 Q321.1895 -333.9323 321.252 -333.6354 Q321.3458 -333.2292 321.6661 -332.987 Q321.9864 -332.7448 322.4708 -332.7448 Q322.9395 -332.7448 323.3536 -332.987 Q323.7676 -333.2292 323.9473 -333.6511 Q324.127 -334.0729 324.127 -334.8698 L324.127 -338.1979 L325.1739 -338.1979 L325.1739 -331.9792 L324.2364 -331.9792 ZM326.8165 -331.9792 L326.8165 -338.1979 L327.7696 -338.1979 L327.7696 -337.2604 Q328.129 -337.9167 328.4337 -338.1276 Q328.7383 -338.3386 329.1133 -338.3386 Q329.6446 -338.3386 330.1915 -338.0104 L329.8321 -337.0261 Q329.4415 -337.2604 329.0665 -337.2604 Q328.7071 -337.2604 328.4337 -337.0495 Q328.1602 -336.8386 328.0508 -336.4636 Q327.8633 -335.9011 327.8633 -335.2448 L327.8633 -331.9792 L326.8165 -331.9792 ZM330.8282 -331.9792 L330.8282 -338.1979 L331.7657 -338.1979 L331.7657 -337.3229 Q332.4532 -338.3386 333.7501 -338.3386 Q334.3126 -338.3386 334.7891 -338.1354 Q335.2657 -337.9323 335.5001 -337.6042 Q335.7344 -337.2761 335.8282 -336.8386 Q335.8751 -336.5417 335.8751 -335.8073 L335.8751 -331.9792 L334.8282 -331.9792 L334.8282 -335.7604 Q334.8282 -336.4167 334.7032 -336.7292 Q334.5782 -337.0417 334.2657 -337.237 Q333.9532 -337.4323 333.5313 -337.4323 Q332.8594 -337.4323 332.3672 -337.0026 Q331.8751 -336.5729 331.8751 -335.3854 L331.8751 -331.9792 L330.8282 -331.9792 ZM340.4454 -335.0886 Q340.4454 -336.8229 341.3985 -337.6511 Q342.1954 -338.3386 343.3516 -338.3386 Q344.6329 -338.3386 345.4532 -337.5026 Q346.2735 -336.6667 346.2735 -335.1823 Q346.2735 -333.9792 345.9141 -333.2917 Q345.5547 -332.6042 344.8594 -332.2214 Q344.1641 -331.8386 343.3516 -331.8386 Q342.0547 -331.8386 341.2501 -332.6745 Q340.4454 -333.5104 340.4454 -335.0886 ZM341.5235 -335.0886 Q341.5235 -333.9011 342.0469 -333.3073 Q342.5704 -332.7136 343.3516 -332.7136 Q344.1485 -332.7136 344.6641 -333.3073 Q345.1797 -333.9011 345.1797 -335.1198 Q345.1797 -336.2761 344.6563 -336.8698 Q344.1329 -337.4636 343.3516 -337.4636 Q342.5704 -337.4636 342.0469 -336.8776 Q341.5235 -336.2917 341.5235 -335.0886 ZM347.7598 -331.9792 L347.7598 -337.3854 L346.8223 -337.3854 L346.8223 -338.1979 L347.7598 -338.1979 L347.7598 -338.8698 Q347.7598 -339.4948 347.8692 -339.7917 Q348.0255 -340.2136 348.4083 -340.4636 Q348.7911 -340.7136 349.4786 -340.7136 Q349.9317 -340.7136 350.463 -340.6042 L350.3067 -339.6979 Q349.9786 -339.7448 349.6817 -339.7448 Q349.1973 -339.7448 349.002 -339.5417 Q348.8067 -339.3386 348.8067 -338.7761 L348.8067 -338.1979 L350.0255 -338.1979 L350.0255 -337.3854 L348.8067 -337.3854 L348.8067 -331.9792 L347.7598 -331.9792 ZM351.0938 -331.9792 L351.0938 -337.3854 L350.1563 -337.3854 L350.1563 -338.1979 L351.0938 -338.1979 L351.0938 -338.8698 Q351.0938 -339.4948 351.2032 -339.7917 Q351.3594 -340.2136 351.7422 -340.4636 Q352.1251 -340.7136 352.8126 -340.7136 Q353.2657 -340.7136 353.7969 -340.6042 L353.6407 -339.6979 Q353.3126 -339.7448 353.0157 -339.7448 Q352.5313 -339.7448 352.336 -339.5417 Q352.1407 -339.3386 352.1407 -338.7761 L352.1407 -338.1979 L353.3594 -338.1979 L353.3594 -337.3854 L352.1407 -337.3854 L352.1407 -331.9792 L351.0938 -331.9792 ZM361.5743 -332.7448 Q360.9805 -332.2448 360.4415 -332.0417 Q359.9024 -331.8386 359.2774 -331.8386 Q358.2462 -331.8386 357.6993 -332.3386 Q357.1524 -332.8386 357.1524 -333.6198 Q357.1524 -334.0729 357.3555 -334.4557 Q357.5587 -334.8386 357.9024 -335.0651 Q358.2462 -335.2917 358.668 -335.4011 Q358.9649 -335.4948 359.6055 -335.5729 Q360.8712 -335.7136 361.4805 -335.9323 Q361.4805 -336.1511 361.4805 -336.1979 Q361.4805 -336.8542 361.1837 -337.1198 Q360.7774 -337.4636 359.9805 -337.4636 Q359.2462 -337.4636 358.8868 -337.2057 Q358.5274 -336.9479 358.3555 -336.2917 L357.3243 -336.4323 Q357.4649 -337.0886 357.793 -337.4948 Q358.1212 -337.9011 358.7305 -338.1198 Q359.3399 -338.3386 360.1368 -338.3386 Q360.9337 -338.3386 361.4337 -338.1511 Q361.9337 -337.9636 362.168 -337.6823 Q362.4024 -337.4011 362.4962 -336.9636 Q362.543 -336.6979 362.543 -335.9948 L362.543 -334.5886 Q362.543 -333.1198 362.6133 -332.7292 Q362.6837 -332.3386 362.8868 -331.9792 L361.7774 -331.9792 Q361.6212 -332.3073 361.5743 -332.7448 ZM361.4805 -335.1042 Q360.9024 -334.8698 359.7618 -334.6979 Q359.1055 -334.6042 358.8399 -334.487 Q358.5743 -334.3698 358.4258 -334.1511 Q358.2774 -333.9323 358.2774 -333.6511 Q358.2774 -333.2292 358.5977 -332.9479 Q358.918 -332.6667 359.5274 -332.6667 Q360.1368 -332.6667 360.6133 -332.9323 Q361.0899 -333.1979 361.3087 -333.6667 Q361.4805 -334.0261 361.4805 -334.7136 L361.4805 -335.1042 ZM364.1544 -331.9792 L364.1544 -340.5729 L365.2169 -340.5729 L365.2169 -331.9792 L364.1544 -331.9792 ZM366.8204 -331.9792 L366.8204 -340.5729 L367.8829 -340.5729 L367.8829 -331.9792 L366.8204 -331.9792 ZM373.8204 -331.9792 L372.836 -331.9792 L372.836 -340.5729 L373.8985 -340.5729 L373.8985 -337.5104 Q374.5704 -338.3386 375.6016 -338.3386 Q376.1797 -338.3386 376.6876 -338.112 Q377.1954 -337.8854 377.5313 -337.4636 Q377.8672 -337.0417 378.0547 -336.4479 Q378.2422 -335.8542 378.2422 -335.1823 Q378.2422 -333.5886 377.4454 -332.7136 Q376.6485 -331.8386 375.5547 -331.8386 Q374.4454 -331.8386 373.8204 -332.7604 L373.8204 -331.9792 ZM373.8047 -335.1354 Q373.8047 -334.0261 374.1172 -333.5261 Q374.6172 -332.7136 375.461 -332.7136 Q376.1485 -332.7136 376.6563 -333.3073 Q377.1641 -333.9011 377.1641 -335.1042 Q377.1641 -336.3229 376.6797 -336.9011 Q376.1954 -337.4792 375.5079 -337.4792 Q374.8204 -337.4792 374.3126 -336.8776 Q373.8047 -336.2761 373.8047 -335.1354 ZM383.6036 -331.9792 L383.6036 -332.9011 Q382.8692 -331.8386 381.6192 -331.8386 Q381.0723 -331.8386 380.5958 -332.0495 Q380.1192 -332.2604 379.8848 -332.5807 Q379.6505 -332.9011 379.5567 -333.3698 Q379.4942 -333.6667 379.4942 -334.3542 L379.4942 -338.1979 L380.5567 -338.1979 L380.5567 -334.7448 Q380.5567 -333.9323 380.6192 -333.6354 Q380.713 -333.2292 381.0333 -332.987 Q381.3536 -332.7448 381.838 -332.7448 Q382.3067 -332.7448 382.7208 -332.987 Q383.1348 -333.2292 383.3145 -333.6511 Q383.4942 -334.0729 383.4942 -334.8698 L383.4942 -338.1979 L384.5411 -338.1979 L384.5411 -331.9792 L383.6036 -331.9792 ZM388.4962 -332.9167 L388.6524 -331.9948 Q388.1993 -331.9011 387.8555 -331.9011 Q387.2774 -331.9011 386.9649 -332.0807 Q386.6524 -332.2604 386.5196 -332.5573 Q386.3868 -332.8542 386.3868 -333.8073 L386.3868 -337.3854 L385.6212 -337.3854 L385.6212 -338.1979 L386.3868 -338.1979 L386.3868 -339.7448 L387.4337 -340.3698 L387.4337 -338.1979 L388.4962 -338.1979 L388.4962 -337.3854 L387.4337 -337.3854 L387.4337 -333.7448 Q387.4337 -333.2917 387.4883 -333.1667 Q387.543 -333.0417 387.668 -332.9636 Q387.793 -332.8854 388.0274 -332.8854 Q388.2149 -332.8854 388.4962 -332.9167 ZM398.1172 -332.9948 L398.1172 -331.9792 L392.4297 -331.9792 Q392.4297 -332.3542 392.5547 -332.7136 Q392.7735 -333.2917 393.2501 -333.8542 Q393.7266 -334.4167 394.6329 -335.1511 Q396.0391 -336.3073 396.5313 -336.9792 Q397.0235 -337.6511 397.0235 -338.2448 Q397.0235 -338.8698 396.5704 -339.2995 Q396.1172 -339.7292 395.3985 -339.7292 Q394.6329 -339.7292 394.1797 -339.2761 Q393.7266 -338.8229 393.711 -338.0104 L392.6329 -338.1198 Q392.7422 -339.3386 393.4688 -339.9714 Q394.1954 -340.6042 395.4297 -340.6042 Q396.6641 -340.6042 397.3829 -339.9167 Q398.1016 -339.2292 398.1016 -338.2136 Q398.1016 -337.6979 397.8907 -337.2057 Q397.6797 -336.7136 397.1876 -336.1589 Q396.6954 -335.6042 395.5704 -334.6511 Q394.6172 -333.8542 394.3438 -333.5651 Q394.0704 -333.2761 393.8985 -332.9948 L398.1172 -332.9948 ZM406.9376 -334.2604 L407.9688 -334.1198 Q407.7969 -333.0573 407.0938 -332.4479 Q406.3907 -331.8386 405.3751 -331.8386 Q404.0938 -331.8386 403.3204 -332.6745 Q402.5469 -333.5104 402.5469 -335.0729 Q402.5469 -336.0729 402.8829 -336.8307 Q403.2188 -337.5886 403.8985 -337.9636 Q404.5782 -338.3386 405.3907 -338.3386 Q406.3907 -338.3386 407.0391 -337.8307 Q407.6876 -337.3229 407.8751 -336.3698 L406.8438 -336.2136 Q406.7032 -336.8386 406.3282 -337.1589 Q405.9532 -337.4792 405.4219 -337.4792 Q404.6251 -337.4792 404.1251 -336.9089 Q403.6251 -336.3386 403.6251 -335.1042 Q403.6251 -333.8386 404.1094 -333.2761 Q404.5938 -332.7136 405.3594 -332.7136 Q405.9844 -332.7136 406.3985 -333.0886 Q406.8126 -333.4636 406.9376 -334.2604 ZM408.8751 -331.9792 L408.8751 -340.5729 L409.9219 -340.5729 L409.9219 -337.4948 Q410.6563 -338.3386 411.7813 -338.3386 Q412.4844 -338.3386 412.9922 -338.0651 Q413.5001 -337.7917 413.7188 -337.3151 Q413.9376 -336.8386 413.9376 -335.9167 L413.9376 -331.9792 L412.8907 -331.9792 L412.8907 -335.9167 Q412.8907 -336.7136 412.5469 -337.0729 Q412.2032 -337.4323 411.5782 -337.4323 Q411.1094 -337.4323 410.6954 -337.1901 Q410.2813 -336.9479 410.1016 -336.5339 Q409.9219 -336.1198 409.9219 -335.3854 L409.9219 -331.9792 L408.8751 -331.9792 ZM419.6114 -332.7448 Q419.0176 -332.2448 418.4786 -332.0417 Q417.9395 -331.8386 417.3145 -331.8386 Q416.2833 -331.8386 415.7364 -332.3386 Q415.1895 -332.8386 415.1895 -333.6198 Q415.1895 -334.0729 415.3926 -334.4557 Q415.5958 -334.8386 415.9395 -335.0651 Q416.2833 -335.2917 416.7051 -335.4011 Q417.002 -335.4948 417.6426 -335.5729 Q418.9083 -335.7136 419.5176 -335.9323 Q419.5176 -336.1511 419.5176 -336.1979 Q419.5176 -336.8542 419.2208 -337.1198 Q418.8145 -337.4636 418.0176 -337.4636 Q417.2833 -337.4636 416.9239 -337.2057 Q416.5645 -336.9479 416.3926 -336.2917 L415.3614 -336.4323 Q415.502 -337.0886 415.8301 -337.4948 Q416.1583 -337.9011 416.7676 -338.1198 Q417.377 -338.3386 418.1739 -338.3386 Q418.9708 -338.3386 419.4708 -338.1511 Q419.9708 -337.9636 420.2051 -337.6823 Q420.4395 -337.4011 420.5333 -336.9636 Q420.5801 -336.6979 420.5801 -335.9948 L420.5801 -334.5886 Q420.5801 -333.1198 420.6505 -332.7292 Q420.7208 -332.3386 420.9239 -331.9792 L419.8145 -331.9792 Q419.6583 -332.3073 419.6114 -332.7448 ZM419.5176 -335.1042 Q418.9395 -334.8698 417.7989 -334.6979 Q417.1426 -334.6042 416.877 -334.487 Q416.6114 -334.3698 416.463 -334.1511 Q416.3145 -333.9323 416.3145 -333.6511 Q416.3145 -333.2292 416.6348 -332.9479 Q416.9551 -332.6667 417.5645 -332.6667 Q418.1739 -332.6667 418.6505 -332.9323 Q419.127 -333.1979 419.3458 -333.6667 Q419.5176 -334.0261 419.5176 -334.7136 L419.5176 -335.1042 ZM422.2227 -331.9792 L422.2227 -338.1979 L423.1602 -338.1979 L423.1602 -337.3229 Q423.8477 -338.3386 425.1446 -338.3386 Q425.7071 -338.3386 426.1837 -338.1354 Q426.6602 -337.9323 426.8946 -337.6042 Q427.129 -337.2761 427.2227 -336.8386 Q427.2696 -336.5417 427.2696 -335.8073 L427.2696 -331.9792 L426.2227 -331.9792 L426.2227 -335.7604 Q426.2227 -336.4167 426.0977 -336.7292 Q425.9727 -337.0417 425.6602 -337.237 Q425.3477 -337.4323 424.9258 -337.4323 Q424.254 -337.4323 423.7618 -337.0026 Q423.2696 -336.5729 423.2696 -335.3854 L423.2696 -331.9792 L422.2227 -331.9792 ZM428.8965 -331.9792 L428.8965 -338.1979 L429.834 -338.1979 L429.834 -337.3229 Q430.5215 -338.3386 431.8184 -338.3386 Q432.3809 -338.3386 432.8575 -338.1354 Q433.334 -337.9323 433.5684 -337.6042 Q433.8028 -337.2761 433.8965 -336.8386 Q433.9434 -336.5417 433.9434 -335.8073 L433.9434 -331.9792 L432.8965 -331.9792 L432.8965 -335.7604 Q432.8965 -336.4167 432.7715 -336.7292 Q432.6465 -337.0417 432.334 -337.237 Q432.0215 -337.4323 431.5997 -337.4323 Q430.9278 -337.4323 430.4356 -337.0026 Q429.9434 -336.5729 429.9434 -335.3854 L429.9434 -331.9792 L428.8965 -331.9792 ZM439.8204 -333.9792 L440.9141 -333.8542 Q440.6641 -332.9011 439.961 -332.3698 Q439.2579 -331.8386 438.1797 -331.8386 Q436.8204 -331.8386 436.0157 -332.6823 Q435.211 -333.5261 435.211 -335.0417 Q435.211 -336.6042 436.0235 -337.4714 Q436.836 -338.3386 438.1172 -338.3386 Q439.3672 -338.3386 440.1563 -337.4948 Q440.9454 -336.6511 440.9454 -335.1042 Q440.9454 -335.0104 440.9454 -334.8229 L436.3047 -334.8229 Q436.3672 -333.7917 436.8829 -333.2526 Q437.3985 -332.7136 438.1797 -332.7136 Q438.7579 -332.7136 439.1719 -333.0182 Q439.586 -333.3229 439.8204 -333.9792 ZM436.3672 -335.6823 L439.836 -335.6823 Q439.7735 -336.4792 439.4454 -336.8698 Q438.9297 -337.4792 438.1329 -337.4792 Q437.3985 -337.4792 436.9063 -336.9948 Q436.4141 -336.5104 436.3672 -335.6823 ZM442.213 -331.9792 L442.213 -340.5729 L443.2755 -340.5729 L443.2755 -331.9792 L442.213 -331.9792 ZM444.4883 -333.8386 L445.5196 -333.9948 Q445.6133 -333.3698 446.0118 -333.0417 Q446.4102 -332.7136 447.1446 -332.7136 Q447.8633 -332.7136 448.2149 -333.0026 Q448.5665 -333.2917 448.5665 -333.6979 Q448.5665 -334.0573 448.254 -334.2604 Q448.0352 -334.4011 447.1758 -334.6198 Q446.0196 -334.9167 445.5743 -335.1276 Q445.129 -335.3386 444.8946 -335.7136 Q444.6602 -336.0886 444.6602 -336.5573 Q444.6602 -336.9636 444.8477 -337.3229 Q445.0352 -337.6823 445.3633 -337.9167 Q445.6133 -338.0886 446.0352 -338.2136 Q446.4571 -338.3386 446.9571 -338.3386 Q447.6758 -338.3386 448.2305 -338.1276 Q448.7852 -337.9167 449.0508 -337.5573 Q449.3165 -337.1979 449.4102 -336.6042 L448.379 -336.4636 Q448.3165 -336.9323 447.9805 -337.2057 Q447.6446 -337.4792 447.0196 -337.4792 Q446.3008 -337.4792 445.9883 -337.237 Q445.6758 -336.9948 445.6758 -336.6667 Q445.6758 -336.4636 445.8008 -336.3073 Q445.9415 -336.1354 446.2071 -336.0261 Q446.3633 -335.9636 447.1446 -335.7604 Q448.2696 -335.4479 448.7071 -335.2604 Q449.1446 -335.0729 449.3946 -334.7136 Q449.6446 -334.3542 449.6446 -333.8073 Q449.6446 -333.2761 449.3399 -332.8151 Q449.0352 -332.3542 448.4571 -332.0964 Q447.879 -331.8386 447.1446 -331.8386 Q445.9258 -331.8386 445.293 -332.3464 Q444.6602 -332.8542 444.4883 -333.8386 Z" clip-path="url(#clipPath4)" stroke-linecap="square" stroke="none"/>
    </g>
    <g fill="url(#linearGradient14)" text-rendering="geometricPrecision" shape-rendering="geometricPrecision" transform="matrix(1,0,0,1,-63,486)" stroke="url(#linearGradient14)">
      <path d="M108.4907 -292.685 L228.4907 -292.685 L228.4907 -252.685 L108.4907 -252.685 Z" stroke="none" clip-path="url(#clipPath2)"/>
    </g>
    <g text-rendering="geometricPrecision" stroke-miterlimit="1.45" shape-rendering="geometricPrecision" transform="matrix(1,0,0,1,-63,486)" stroke-linecap="butt">
      <path fill="none" d="M108.4907 -292.685 L228.4907 -292.685 L228.4907 -252.685 L108.4907 -252.685 Z" clip-path="url(#clipPath2)"/>
      <text x="135.1391" xml:space="preserve" y="-275.3217" clip-path="url(#clipPath2)" font-family="sans-serif" stroke="none">Init Marquee</text>
      <text x="148.8178" xml:space="preserve" y="-260.6205" clip-path="url(#clipPath2)" font-family="sans-serif" stroke="none">Display</text>
    </g>
    <g fill="url(#linearGradient15)" text-rendering="geometricPrecision" shape-rendering="geometricPrecision" transform="matrix(1,0,0,1,-63,486)" stroke="url(#linearGradient15)">
      <rect x="310.0313" width="161.25" height="40" y="-292.685" clip-path="url(#clipPath2)" stroke="none"/>
    </g>
    <g text-rendering="geometricPrecision" stroke-miterlimit="1.45" shape-rendering="geometricPrecision" transform="matrix(1,0,0,1,-63,486)" stroke-linecap="butt">
      <path fill="none" d="M330.1876 -292.685 L310.0313 -292.685 L310.0313 -252.685 L330.1876 -252.685" clip-path="url(#clipPath2)"/>
      <path stroke-miterlimit="10" d="M312.9532 -269.1674 L312.9532 -277.7612 L316.2032 -277.7612 Q317.0469 -277.7612 317.5001 -277.683 Q318.1407 -277.5737 318.5704 -277.2768 Q319.0001 -276.9799 319.2579 -276.4487 Q319.5157 -275.9174 319.5157 -275.2768 Q319.5157 -274.183 318.8204 -273.4252 Q318.1251 -272.6674 316.2969 -272.6674 L314.0938 -272.6674 L314.0938 -269.1674 L312.9532 -269.1674 ZM314.0938 -273.6674 L316.3126 -273.6674 Q317.4219 -273.6674 317.8829 -274.0815 Q318.3438 -274.4955 318.3438 -275.2455 Q318.3438 -275.7768 318.0704 -276.1596 Q317.7969 -276.5424 317.3594 -276.6674 Q317.0626 -276.7455 316.2969 -276.7455 L314.0938 -276.7455 L314.0938 -273.6674 ZM324.8946 -269.933 Q324.3008 -269.433 323.7618 -269.2299 Q323.2227 -269.0268 322.5977 -269.0268 Q321.5665 -269.0268 321.0196 -269.5268 Q320.4727 -270.0268 320.4727 -270.808 Q320.4727 -271.2612 320.6758 -271.644 Q320.879 -272.0268 321.2227 -272.2534 Q321.5665 -272.4799 321.9883 -272.5893 Q322.2852 -272.683 322.9258 -272.7612 Q324.1915 -272.9018 324.8008 -273.1205 Q324.8008 -273.3393 324.8008 -273.3862 Q324.8008 -274.0424 324.504 -274.308 Q324.0977 -274.6518 323.3008 -274.6518 Q322.5665 -274.6518 322.2071 -274.394 Q321.8477 -274.1362 321.6758 -273.4799 L320.6446 -273.6205 Q320.7852 -274.2768 321.1133 -274.683 Q321.4415 -275.0893 322.0508 -275.308 Q322.6602 -275.5268 323.4571 -275.5268 Q324.254 -275.5268 324.754 -275.3393 Q325.254 -275.1518 325.4883 -274.8705 Q325.7227 -274.5893 325.8165 -274.1518 Q325.8633 -273.8862 325.8633 -273.183 L325.8633 -271.7768 Q325.8633 -270.308 325.9337 -269.9174 Q326.004 -269.5268 326.2071 -269.1674 L325.0977 -269.1674 Q324.9415 -269.4955 324.8946 -269.933 ZM324.8008 -272.2924 Q324.2227 -272.058 323.0821 -271.8862 Q322.4258 -271.7924 322.1602 -271.6752 Q321.8946 -271.558 321.7462 -271.3393 Q321.5977 -271.1205 321.5977 -270.8393 Q321.5977 -270.4174 321.918 -270.1362 Q322.2383 -269.8549 322.8477 -269.8549 Q323.4571 -269.8549 323.9337 -270.1205 Q324.4102 -270.3862 324.629 -270.8549 Q324.8008 -271.2143 324.8008 -271.9018 L324.8008 -272.2924 ZM329.8028 -270.1049 L329.959 -269.183 Q329.5059 -269.0893 329.1622 -269.0893 Q328.584 -269.0893 328.2715 -269.269 Q327.959 -269.4487 327.8262 -269.7455 Q327.6934 -270.0424 327.6934 -270.9955 L327.6934 -274.5737 L326.9278 -274.5737 L326.9278 -275.3862 L327.6934 -275.3862 L327.6934 -276.933 L328.7403 -277.558 L328.7403 -275.3862 L329.8028 -275.3862 L329.8028 -274.5737 L328.7403 -274.5737 L328.7403 -270.933 Q328.7403 -270.4799 328.795 -270.3549 Q328.8497 -270.2299 328.9747 -270.1518 Q329.0997 -270.0737 329.334 -270.0737 Q329.5215 -270.0737 329.8028 -270.1049 ZM333.1368 -270.1049 L333.293 -269.183 Q332.8399 -269.0893 332.4962 -269.0893 Q331.918 -269.0893 331.6055 -269.269 Q331.293 -269.4487 331.1602 -269.7455 Q331.0274 -270.0424 331.0274 -270.9955 L331.0274 -274.5737 L330.2618 -274.5737 L330.2618 -275.3862 L331.0274 -275.3862 L331.0274 -276.933 L332.0743 -277.558 L332.0743 -275.3862 L333.1368 -275.3862 L333.1368 -274.5737 L332.0743 -274.5737 L332.0743 -270.933 Q332.0743 -270.4799 332.129 -270.3549 Q332.1837 -270.2299 332.3087 -270.1518 Q332.4337 -270.0737 332.668 -270.0737 Q332.8555 -270.0737 333.1368 -270.1049 ZM338.4239 -271.1674 L339.5176 -271.0424 Q339.2676 -270.0893 338.5645 -269.558 Q337.8614 -269.0268 336.7833 -269.0268 Q335.4239 -269.0268 334.6192 -269.8705 Q333.8145 -270.7143 333.8145 -272.2299 Q333.8145 -273.7924 334.627 -274.6596 Q335.4395 -275.5268 336.7208 -275.5268 Q337.9708 -275.5268 338.7598 -274.683 Q339.5489 -273.8393 339.5489 -272.2924 Q339.5489 -272.1987 339.5489 -272.0112 L334.9083 -272.0112 Q334.9708 -270.9799 335.4864 -270.4409 Q336.002 -269.9018 336.7833 -269.9018 Q337.3614 -269.9018 337.7755 -270.2065 Q338.1895 -270.5112 338.4239 -271.1674 ZM334.9708 -272.8705 L338.4395 -272.8705 Q338.377 -273.6674 338.0489 -274.058 Q337.5333 -274.6674 336.7364 -274.6674 Q336.002 -274.6674 335.5098 -274.183 Q335.0176 -273.6987 334.9708 -272.8705 ZM340.8321 -269.1674 L340.8321 -275.3862 L341.7852 -275.3862 L341.7852 -274.4487 Q342.1446 -275.1049 342.4493 -275.3159 Q342.754 -275.5268 343.129 -275.5268 Q343.6602 -275.5268 344.2071 -275.1987 L343.8477 -274.2143 Q343.4571 -274.4487 343.0821 -274.4487 Q342.7227 -274.4487 342.4493 -274.2377 Q342.1758 -274.0268 342.0665 -273.6518 Q341.879 -273.0893 341.879 -272.433 L341.879 -269.1674 L340.8321 -269.1674 ZM344.8438 -269.1674 L344.8438 -275.3862 L345.7813 -275.3862 L345.7813 -274.5112 Q346.4688 -275.5268 347.7657 -275.5268 Q348.3282 -275.5268 348.8047 -275.3237 Q349.2813 -275.1205 349.5157 -274.7924 Q349.7501 -274.4643 349.8438 -274.0268 Q349.8907 -273.7299 349.8907 -272.9955 L349.8907 -269.1674 L348.8438 -269.1674 L348.8438 -272.9487 Q348.8438 -273.6049 348.7188 -273.9174 Q348.5938 -274.2299 348.2813 -274.4252 Q347.9688 -274.6205 347.5469 -274.6205 Q346.8751 -274.6205 346.3829 -274.1909 Q345.8907 -273.7612 345.8907 -272.5737 L345.8907 -269.1674 L344.8438 -269.1674 ZM353.4864 -271.2768 Q353.4864 -271.4955 353.4864 -271.6049 Q353.4864 -272.2143 353.6583 -272.6674 Q353.7833 -273.0112 354.0801 -273.3549 Q354.2833 -273.6049 354.8301 -274.0893 Q355.377 -274.5737 355.5411 -274.8627 Q355.7051 -275.1518 355.7051 -275.4955 Q355.7051 -276.1049 355.2286 -276.5737 Q354.752 -277.0424 354.0489 -277.0424 Q353.377 -277.0424 352.9239 -276.6205 Q352.4708 -276.1987 352.3301 -275.2924 L351.252 -275.433 Q351.3926 -276.6205 352.1192 -277.2612 Q352.8458 -277.9018 354.0333 -277.9018 Q355.2989 -277.9018 356.0489 -277.2143 Q356.7989 -276.5268 356.7989 -275.558 Q356.7989 -274.9955 356.5333 -274.519 Q356.2676 -274.0424 355.502 -273.3705 Q354.9864 -272.9174 354.8223 -272.6987 Q354.6583 -272.4799 354.588 -272.1987 Q354.5176 -271.9174 354.502 -271.2768 L353.4864 -271.2768 ZM353.4239 -269.1674 L353.4239 -270.3705 L354.627 -270.3705 L354.627 -269.1674 L353.4239 -269.1674 Z" clip-path="url(#clipPath5)" stroke-linecap="square" stroke="none"/>
    </g>
    <g fill="url(#linearGradient16)" text-rendering="geometricPrecision" shape-rendering="geometricPrecision" transform="matrix(1,0,0,1,-63,486)" stroke="url(#linearGradient16)">
      <path d="M108.4907 -229.8732 L228.4907 -229.8732 L228.4907 -189.8732 L108.4907 -189.8732 Z" stroke="none" clip-path="url(#clipPath2)"/>
    </g>
    <g text-rendering="geometricPrecision" stroke-miterlimit="1.45" shape-rendering="geometricPrecision" transform="matrix(1,0,0,1,-63,486)" stroke-linecap="butt">
      <path fill="none" d="M108.4907 -229.8732 L228.4907 -229.8732 L228.4907 -189.8732 L108.4907 -189.8732 Z" clip-path="url(#clipPath2)"/>
      <text x="136.4809" xml:space="preserve" y="-212.51" clip-path="url(#clipPath2)" font-family="sans-serif" stroke="none">Init I2C Mux</text>
      <text x="114.4672" xml:space="preserve" y="-197.8088" clip-path="url(#clipPath2)" font-family="sans-serif" stroke="none">Select First Channel</text>
    </g>
    <g fill="url(#linearGradient17)" text-rendering="geometricPrecision" shape-rendering="geometricPrecision" transform="matrix(1,0,0,1,-63,486)" stroke="url(#linearGradient17)">
      <rect x="310.0313" width="161.25" height="40" y="-229.8732" clip-path="url(#clipPath2)" stroke="none"/>
    </g>
    <g text-rendering="geometricPrecision" stroke-miterlimit="1.45" shape-rendering="geometricPrecision" transform="matrix(1,0,0,1,-63,486)" stroke-linecap="butt">
      <path fill="none" d="M330.1876 -229.8732 L310.0313 -229.8732 L310.0313 -189.8732 L330.1876 -189.8732" clip-path="url(#clipPath2)"/>
      <path stroke-miterlimit="10" d="M314.7969 -208.465 Q314.7969 -208.6838 314.7969 -208.7932 Q314.7969 -209.4025 314.9688 -209.8557 Q315.0938 -210.1994 315.3907 -210.5432 Q315.5938 -210.7932 316.1407 -211.2775 Q316.6876 -211.7619 316.8516 -212.051 Q317.0157 -212.34 317.0157 -212.6838 Q317.0157 -213.2932 316.5391 -213.7619 Q316.0626 -214.2307 315.3594 -214.2307 Q314.6876 -214.2307 314.2344 -213.8088 Q313.7813 -213.3869 313.6407 -212.4807 L312.5626 -212.6213 Q312.7032 -213.8088 313.4297 -214.4494 Q314.1563 -215.09 315.3438 -215.09 Q316.6094 -215.09 317.3594 -214.4025 Q318.1094 -213.715 318.1094 -212.7463 Q318.1094 -212.1838 317.8438 -211.7072 Q317.5782 -211.2307 316.8126 -210.5588 Q316.2969 -210.1057 316.1329 -209.8869 Q315.9688 -209.6682 315.8985 -209.3869 Q315.8282 -209.1057 315.8126 -208.465 L314.7969 -208.465 ZM314.7344 -206.3557 L314.7344 -207.5588 L315.9376 -207.5588 L315.9376 -206.3557 L314.7344 -206.3557 ZM321.4708 -208.465 Q321.4708 -208.6838 321.4708 -208.7932 Q321.4708 -209.4025 321.6426 -209.8557 Q321.7676 -210.1994 322.0645 -210.5432 Q322.2676 -210.7932 322.8145 -211.2775 Q323.3614 -211.7619 323.5255 -212.051 Q323.6895 -212.34 323.6895 -212.6838 Q323.6895 -213.2932 323.213 -213.7619 Q322.7364 -214.2307 322.0333 -214.2307 Q321.3614 -214.2307 320.9083 -213.8088 Q320.4551 -213.3869 320.3145 -212.4807 L319.2364 -212.6213 Q319.377 -213.8088 320.1036 -214.4494 Q320.8301 -215.09 322.0176 -215.09 Q323.2833 -215.09 324.0333 -214.4025 Q324.7833 -213.715 324.7833 -212.7463 Q324.7833 -212.1838 324.5176 -211.7072 Q324.252 -211.2307 323.4864 -210.5588 Q322.9708 -210.1057 322.8067 -209.8869 Q322.6426 -209.6682 322.5723 -209.3869 Q322.502 -209.1057 322.4864 -208.465 L321.4708 -208.465 ZM321.4083 -206.3557 L321.4083 -207.5588 L322.6114 -207.5588 L322.6114 -206.3557 L321.4083 -206.3557 ZM328.1446 -208.465 Q328.1446 -208.6838 328.1446 -208.7932 Q328.1446 -209.4025 328.3165 -209.8557 Q328.4415 -210.1994 328.7383 -210.5432 Q328.9415 -210.7932 329.4883 -211.2775 Q330.0352 -211.7619 330.1993 -212.051 Q330.3633 -212.34 330.3633 -212.6838 Q330.3633 -213.2932 329.8868 -213.7619 Q329.4102 -214.2307 328.7071 -214.2307 Q328.0352 -214.2307 327.5821 -213.8088 Q327.129 -213.3869 326.9883 -212.4807 L325.9102 -212.6213 Q326.0508 -213.8088 326.7774 -214.4494 Q327.504 -215.09 328.6915 -215.09 Q329.9571 -215.09 330.7071 -214.4025 Q331.4571 -213.715 331.4571 -212.7463 Q331.4571 -212.1838 331.1915 -211.7072 Q330.9258 -211.2307 330.1602 -210.5588 Q329.6446 -210.1057 329.4805 -209.8869 Q329.3165 -209.6682 329.2462 -209.3869 Q329.1758 -209.1057 329.1602 -208.465 L328.1446 -208.465 ZM328.0821 -206.3557 L328.0821 -207.5588 L329.2852 -207.5588 L329.2852 -206.3557 L328.0821 -206.3557 Z" clip-path="url(#clipPath6)" stroke-linecap="square" stroke="none"/>
    </g>
    <g fill="rgb(245,245,245)" text-rendering="geometricPrecision" shape-rendering="geometricPrecision" transform="matrix(1,0,0,1,-63,486)" stroke="rgb(245,245,245)">
      <rect x="386.3564" y="72.4353" clip-path="url(#clipPath2)" width="223.2" rx="4" ry="4" height="512.3765" stroke="none"/>
      <rect x="386.3564" y="72.4353" clip-path="url(#clipPath2)" fill="rgb(235,235,235)" width="223.2" height="22.3765" stroke="none"/>
    </g>
    <g font-size="15px" stroke-linecap="butt" transform="matrix(1,0,0,1,-63,486)" text-rendering="geometricPrecision" font-family="sans-serif" shape-rendering="geometricPrecision" stroke-miterlimit="1.45">
      <text x="538.3499" xml:space="preserve" y="89.5159" clip-path="url(#clipPath2)" stroke="none">Get Inputs</text>
      <rect x="386.3564" y="72.4353" clip-path="url(#clipPath2)" fill="none" width="223.2" rx="4" ry="4" height="512.3765"/>
      <path fill="none" d="M497.9564 174.7825 L497.9564 226.8435" clip-path="url(#clipPath2)"/>
      <path d="M497.9564 234.8435 L502.9564 222.8435 L497.9564 225.8435 L492.9564 222.8435 Z" stroke="none" clip-path="url(#clipPath2)"/>
      <path fill="none" d="M497.9564 494.8215 L497.9564 506.7776" clip-path="url(#clipPath2)"/>
      <path d="M497.9564 514.7776 L502.9564 502.7776 L497.9564 505.7776 L492.9564 502.7776 Z" stroke="none" clip-path="url(#clipPath2)"/>
      <path fill="none" d="M497.9564 274.8215 L497.9564 286.7776" clip-path="url(#clipPath2)"/>
      <path d="M497.9564 294.7776 L502.9564 282.7776 L497.9564 285.7776 L492.9564 282.7776 Z" stroke="none" clip-path="url(#clipPath2)"/>
      <path fill="none" d="M497.9564 374.8215 L497.9564 386.7776" clip-path="url(#clipPath2)"/>
      <path d="M497.9564 394.7776 L502.9564 382.7776 L497.9564 385.7776 L492.9564 382.7776 Z" stroke="none" clip-path="url(#clipPath2)"/>
      <path fill="none" d="M497.9564 434.8215 L497.9564 446.7776" clip-path="url(#clipPath2)"/>
      <path d="M497.9564 454.7776 L502.9564 442.7776 L497.9564 445.7776 L492.9564 442.7776 Z" stroke="none" clip-path="url(#clipPath2)"/>
      <path fill="none" d="M579.5638 364.8118 L599.5564 364.8118 L599.5564 204.8118 L587.5638 204.8118" clip-path="url(#clipPath2)"/>
      <path d="M579.5638 204.8118 L591.5638 209.8118 L588.5638 204.8118 L591.5638 199.8118 Z" stroke="none" clip-path="url(#clipPath2)"/>
      <path fill="none" d="M497.9564 334.7825 L497.9564 346.8118" clip-path="url(#clipPath2)"/>
      <path d="M497.9564 354.8118 L502.9564 342.8118 L497.9564 345.8118 L492.9564 342.8118 Z" stroke="none" clip-path="url(#clipPath2)"/>
    </g>
    <g fill="url(#linearGradient18)" text-rendering="geometricPrecision" shape-rendering="geometricPrecision" transform="matrix(1,0,0,1,-63,486)" stroke="url(#linearGradient18)">
      <circle r="20" clip-path="url(#clipPath2)" cx="497.9564" cy="154.8118" stroke="none"/>
    </g>
    <g text-rendering="geometricPrecision" stroke-miterlimit="1.45" shape-rendering="geometricPrecision" transform="matrix(1,0,0,1,-63,486)" stroke-linecap="butt">
      <circle fill="none" r="20" clip-path="url(#clipPath2)" cx="497.9564" cy="154.8118"/>
    </g>
    <g fill="url(#linearGradient19)" text-rendering="geometricPrecision" shape-rendering="geometricPrecision" transform="matrix(1,0,0,1,-63,486)" stroke="url(#linearGradient19)">
      <path d="M437.9564 234.8118 L557.9564 234.8118 L557.9564 274.8118 L437.9564 274.8118 Z" stroke="none" clip-path="url(#clipPath2)"/>
    </g>
    <g text-rendering="geometricPrecision" stroke-miterlimit="1.45" shape-rendering="geometricPrecision" transform="matrix(1,0,0,1,-63,486)" stroke-linecap="butt">
      <path fill="none" d="M437.9564 234.8118 L557.9564 234.8118 L557.9564 274.8118 L437.9564 274.8118 Z" clip-path="url(#clipPath2)"/>
      <text x="461.933" xml:space="preserve" y="252.175" clip-path="url(#clipPath2)" font-family="sans-serif" stroke="none">Select Range</text>
      <text x="480.9496" xml:space="preserve" y="266.8762" clip-path="url(#clipPath2)" font-family="sans-serif" stroke="none">Finder</text>
    </g>
    <g fill="url(#linearGradient20)" text-rendering="geometricPrecision" shape-rendering="geometricPrecision" transform="matrix(1,0,0,1,-63,486)" stroke="url(#linearGradient20)">
      <circle r="20" clip-path="url(#clipPath2)" cx="497.9564" cy="534.8118" stroke="none"/>
    </g>
    <g text-rendering="geometricPrecision" stroke-miterlimit="1.45" shape-rendering="geometricPrecision" transform="matrix(1,0,0,1,-63,486)" stroke-linecap="butt">
      <circle fill="none" r="20" clip-path="url(#clipPath2)" cx="497.9564" cy="534.8118"/>
    </g>
    <g fill="url(#linearGradient21)" text-rendering="geometricPrecision" shape-rendering="geometricPrecision" transform="matrix(1,0,0,1,-63,486)" stroke="url(#linearGradient21)">
      <path d="M437.9564 294.8118 L557.9564 294.8118 L557.9564 334.8118 L437.9564 334.8118 Z" stroke="none" clip-path="url(#clipPath2)"/>
    </g>
    <g text-rendering="geometricPrecision" stroke-miterlimit="1.45" shape-rendering="geometricPrecision" transform="matrix(1,0,0,1,-63,486)" stroke-linecap="butt">
      <path fill="none" d="M437.9564 294.8118 L557.9564 294.8118 L557.9564 334.8118 L437.9564 334.8118 Z" clip-path="url(#clipPath2)"/>
      <text x="464.265" xml:space="preserve" y="312.175" clip-path="url(#clipPath2)" font-family="sans-serif" stroke="none">Read Range</text>
      <text x="480.9496" xml:space="preserve" y="326.8762" clip-path="url(#clipPath2)" font-family="sans-serif" stroke="none">Finder</text>
    </g>
    <g fill="url(#linearGradient22)" text-rendering="geometricPrecision" shape-rendering="geometricPrecision" transform="matrix(1,0,0,1,-63,486)" stroke="url(#linearGradient22)">
      <path d="M437.9564 394.8118 L557.9564 394.8118 L557.9564 434.8118 L437.9564 434.8118 Z" stroke="none" clip-path="url(#clipPath2)"/>
    </g>
    <g text-rendering="geometricPrecision" stroke-miterlimit="1.45" shape-rendering="geometricPrecision" transform="matrix(1,0,0,1,-63,486)" stroke-linecap="butt">
      <path fill="none" d="M437.9564 394.8118 L557.9564 394.8118 L557.9564 434.8118 L437.9564 434.8118 Z" clip-path="url(#clipPath2)"/>
      <text x="446.5931" xml:space="preserve" y="412.175" clip-path="url(#clipPath2)" font-family="sans-serif" stroke="none">Read I/O Expander</text>
      <text x="451.2777" xml:space="preserve" y="426.8762" clip-path="url(#clipPath2)" font-family="sans-serif" stroke="none">All Limit Switches</text>
    </g>
    <g fill="url(#linearGradient23)" text-rendering="geometricPrecision" shape-rendering="geometricPrecision" transform="matrix(1,0,0,1,-63,486)" stroke="url(#linearGradient23)">
      <path d="M437.9564 454.8118 L557.9564 454.8118 L557.9564 494.8118 L437.9564 494.8118 Z" stroke="none" clip-path="url(#clipPath2)"/>
    </g>
    <g text-rendering="geometricPrecision" stroke-miterlimit="1.45" shape-rendering="geometricPrecision" transform="matrix(1,0,0,1,-63,486)" stroke-linecap="butt">
      <path fill="none" d="M437.9564 454.8118 L557.9564 454.8118 L557.9564 494.8118 L437.9564 494.8118 Z" clip-path="url(#clipPath2)"/>
      <text x="446.5931" xml:space="preserve" y="472.175" clip-path="url(#clipPath2)" font-family="sans-serif" stroke="none">Read I/O Expander</text>
      <text x="457.2718" xml:space="preserve" y="486.8762" clip-path="url(#clipPath2)" font-family="sans-serif" stroke="none">All Call Buttons</text>
    </g>
    <g fill="url(#linearGradient24)" text-rendering="geometricPrecision" shape-rendering="geometricPrecision" transform="matrix(1,0,0,1,-63,486)" stroke="url(#linearGradient24)">
      <path d="M426.3564 194.8118 L569.5564 194.8118 L579.5564 204.8118 L579.5564 214.8118 L416.3564 214.8118 L416.3564 204.8118 Z" stroke="none" clip-path="url(#clipPath2)"/>
    </g>
    <g text-rendering="geometricPrecision" stroke-miterlimit="1.45" shape-rendering="geometricPrecision" transform="matrix(1,0,0,1,-63,486)" stroke-linecap="butt">
      <path fill="none" d="M426.3564 194.8118 L569.5564 194.8118 L579.5564 204.8118 L579.5564 214.8118 L416.3564 214.8118 L416.3564 204.8118 Z" clip-path="url(#clipPath2)"/>
      <text x="450.2669" xml:space="preserve" y="209.5256" clip-path="url(#clipPath2)" font-family="sans-serif" stroke="none">All Range Finders</text>
    </g>
    <g fill="url(#linearGradient25)" text-rendering="geometricPrecision" shape-rendering="geometricPrecision" transform="matrix(1,0,0,1,-63,486)" stroke="url(#linearGradient25)">
      <path d="M416.3564 354.8118 L579.5564 354.8118 L579.5564 364.8118 L569.5564 374.8118 L426.3564 374.8118 L416.3564 364.8118 Z" stroke="none" clip-path="url(#clipPath2)"/>
    </g>
    <g text-rendering="geometricPrecision" stroke-miterlimit="1.45" shape-rendering="geometricPrecision" transform="matrix(1,0,0,1,-63,486)" stroke-linecap="butt">
      <path fill="none" d="M416.3564 354.8118 L579.5564 354.8118 L579.5564 364.8118 L569.5564 374.8118 L426.3564 374.8118 L416.3564 364.8118 Z" clip-path="url(#clipPath2)"/>
    </g>
    <g fill="rgb(245,245,245)" text-rendering="geometricPrecision" shape-rendering="geometricPrecision" transform="matrix(1,0,0,1,-63,486)" stroke="rgb(245,245,245)">
      <rect x="634.2221" y="72.4353" clip-path="url(#clipPath2)" width="200" rx="4" ry="4" height="432.3765" stroke="none"/>
      <rect x="634.2221" y="72.4353" clip-path="url(#clipPath2)" fill="rgb(235,235,235)" width="200" height="22.3765" stroke="none"/>
    </g>
    <g font-size="15px" stroke-linecap="butt" transform="matrix(1,0,0,1,-63,486)" text-rendering="geometricPrecision" font-family="sans-serif" shape-rendering="geometricPrecision" stroke-miterlimit="1.45">
      <text x="729.683" xml:space="preserve" y="89.5159" clip-path="url(#clipPath2)" stroke="none">Run Algorithms</text>
      <rect x="634.2221" y="72.4353" clip-path="url(#clipPath2)" fill="none" width="200" rx="4" ry="4" height="432.3765"/>
      <path fill="none" d="M734.2221 414.8215 L734.2221 426.7776" clip-path="url(#clipPath2)"/>
      <path d="M734.2221 434.7776 L739.2221 422.7776 L734.2221 425.7776 L729.2221 422.7776 Z" stroke="none" clip-path="url(#clipPath2)"/>
      <path fill="none" d="M734.2221 174.8215 L734.2221 186.7776" clip-path="url(#clipPath2)"/>
      <path d="M734.2221 194.7776 L739.2221 182.7776 L734.2221 185.7776 L729.2221 182.7776 Z" stroke="none" clip-path="url(#clipPath2)"/>
      <path fill="none" d="M734.2221 234.8215 L734.2221 246.7776" clip-path="url(#clipPath2)"/>
      <path d="M734.2221 254.7776 L739.2221 242.7776 L734.2221 245.7776 L729.2221 242.7776 Z" stroke="none" clip-path="url(#clipPath2)"/>
      <path fill="none" d="M734.2221 294.8215 L734.2221 306.7776" clip-path="url(#clipPath2)"/>
      <path d="M734.2221 314.7776 L739.2221 302.7776 L734.2221 305.7776 L729.2221 302.7776 Z" stroke="none" clip-path="url(#clipPath2)"/>
      <path fill="none" d="M734.2221 354.8215 L734.2221 366.7776" clip-path="url(#clipPath2)"/>
      <path d="M734.2221 374.7776 L739.2221 362.7776 L734.2221 365.7776 L729.2221 362.7776 Z" stroke="none" clip-path="url(#clipPath2)"/>
    </g>
    <g fill="url(#linearGradient26)" text-rendering="geometricPrecision" shape-rendering="geometricPrecision" transform="matrix(1,0,0,1,-63,486)" stroke="url(#linearGradient26)">
      <circle r="20" clip-path="url(#clipPath2)" cx="734.2221" cy="154.8118" stroke="none"/>
    </g>
    <g text-rendering="geometricPrecision" stroke-miterlimit="1.45" shape-rendering="geometricPrecision" transform="matrix(1,0,0,1,-63,486)" stroke-linecap="butt">
      <circle fill="none" r="20" clip-path="url(#clipPath2)" cx="734.2221" cy="154.8118"/>
    </g>
    <g fill="url(#linearGradient27)" text-rendering="geometricPrecision" shape-rendering="geometricPrecision" transform="matrix(1,0,0,1,-63,486)" stroke="url(#linearGradient27)">
      <circle r="20" clip-path="url(#clipPath2)" cx="734.2221" cy="454.8118" stroke="none"/>
    </g>
    <g text-rendering="geometricPrecision" stroke-miterlimit="1.45" shape-rendering="geometricPrecision" transform="matrix(1,0,0,1,-63,486)" stroke-linecap="butt">
      <circle fill="none" r="20" clip-path="url(#clipPath2)" cx="734.2221" cy="454.8118"/>
    </g>
    <g fill="url(#linearGradient28)" text-rendering="geometricPrecision" shape-rendering="geometricPrecision" transform="matrix(1,0,0,1,-63,486)" stroke="url(#linearGradient28)">
      <path d="M664.2221 194.8118 L804.2221 194.8118 L804.2221 234.8118 L664.2221 234.8118 Z" stroke="none" clip-path="url(#clipPath2)"/>
    </g>
    <g text-rendering="geometricPrecision" stroke-miterlimit="1.45" shape-rendering="geometricPrecision" transform="matrix(1,0,0,1,-63,486)" stroke-linecap="butt">
      <path fill="none" d="M664.2221 194.8118 L804.2221 194.8118 L804.2221 234.8118 L664.2221 234.8118 Z" clip-path="url(#clipPath2)"/>
      <text x="676.1996" xml:space="preserve" y="212.175" clip-path="url(#clipPath2)" font-family="sans-serif" stroke="none">Calculate Current Car</text>
      <text x="681.5346" xml:space="preserve" y="226.8762" clip-path="url(#clipPath2)" font-family="sans-serif" stroke="none">Positions/Directions</text>
    </g>
    <g fill="url(#linearGradient29)" text-rendering="geometricPrecision" shape-rendering="geometricPrecision" transform="matrix(1,0,0,1,-63,486)" stroke="url(#linearGradient29)">
      <path d="M664.2221 254.8118 L804.2221 254.8118 L804.2221 294.8118 L664.2221 294.8118 Z" stroke="none" clip-path="url(#clipPath2)"/>
    </g>
    <g text-rendering="geometricPrecision" stroke-miterlimit="1.45" shape-rendering="geometricPrecision" transform="matrix(1,0,0,1,-63,486)" stroke-linecap="butt">
      <path fill="none" d="M664.2221 254.8118 L804.2221 254.8118 L804.2221 294.8118 L664.2221 294.8118 Z" clip-path="url(#clipPath2)"/>
      <text x="686.5356" xml:space="preserve" y="272.175" clip-path="url(#clipPath2)" font-family="sans-serif" stroke="none">Process Incoming</text>
      <text x="696.8715" xml:space="preserve" y="286.8762" clip-path="url(#clipPath2)" font-family="sans-serif" stroke="none">Call Requests</text>
    </g>
    <g fill="url(#linearGradient30)" text-rendering="geometricPrecision" shape-rendering="geometricPrecision" transform="matrix(1,0,0,1,-63,486)" stroke="url(#linearGradient30)">
      <path d="M664.2221 314.8118 L804.2221 314.8118 L804.2221 354.8118 L664.2221 354.8118 Z" stroke="none" clip-path="url(#clipPath2)"/>
    </g>
    <g text-rendering="geometricPrecision" stroke-miterlimit="1.45" shape-rendering="geometricPrecision" transform="matrix(1,0,0,1,-63,486)" stroke-linecap="butt">
      <path fill="none" d="M664.2221 314.8118 L804.2221 314.8118 L804.2221 354.8118 L664.2221 354.8118 Z" clip-path="url(#clipPath2)"/>
      <text x="675.5317" xml:space="preserve" y="332.175" clip-path="url(#clipPath2)" font-family="sans-serif" stroke="none">Calculate Desired Car</text>
      <text x="681.5346" xml:space="preserve" y="346.8762" clip-path="url(#clipPath2)" font-family="sans-serif" stroke="none">Positions/Directions</text>
    </g>
    <g fill="url(#linearGradient31)" text-rendering="geometricPrecision" shape-rendering="geometricPrecision" transform="matrix(1,0,0,1,-63,486)" stroke="url(#linearGradient31)">
      <path d="M664.2221 374.8118 L804.2221 374.8118 L804.2221 414.8118 L664.2221 414.8118 Z" stroke="none" clip-path="url(#clipPath2)"/>
    </g>
    <g text-rendering="geometricPrecision" stroke-miterlimit="1.45" shape-rendering="geometricPrecision" transform="matrix(1,0,0,1,-63,486)" stroke-linecap="butt">
      <path fill="none" d="M664.2221 374.8118 L804.2221 374.8118 L804.2221 414.8118 L664.2221 414.8118 Z" clip-path="url(#clipPath2)"/>
      <text x="700.8676" xml:space="preserve" y="392.175" clip-path="url(#clipPath2)" font-family="sans-serif" stroke="none">Publish Algo</text>
      <text x="701.8696" xml:space="preserve" y="406.8762" clip-path="url(#clipPath2)" font-family="sans-serif" stroke="none">Output Data</text>
    </g>
    <g fill="rgb(245,245,245)" text-rendering="geometricPrecision" shape-rendering="geometricPrecision" transform="matrix(1,0,0,1,-63,486)" stroke="rgb(245,245,245)">
      <rect x="858.8878" y="72.4353" clip-path="url(#clipPath2)" width="180" rx="4" ry="4" height="362.3765" stroke="none"/>
      <rect x="858.8878" y="72.4353" clip-path="url(#clipPath2)" fill="rgb(235,235,235)" width="180" height="22.3765" stroke="none"/>
    </g>
    <g font-size="15px" stroke-linecap="butt" transform="matrix(1,0,0,1,-63,486)" text-rendering="geometricPrecision" font-family="sans-serif" shape-rendering="geometricPrecision" stroke-miterlimit="1.45">
      <text x="961.8439" xml:space="preserve" y="89.5159" clip-path="url(#clipPath2)" stroke="none">Set Ouputs</text>
      <rect x="858.8878" y="72.4353" clip-path="url(#clipPath2)" fill="none" width="180" rx="4" ry="4" height="362.3765"/>
      <path fill="none" d="M948.8878 164.8215 L948.8878 176.7776" clip-path="url(#clipPath2)"/>
      <path d="M948.8878 184.7776 L953.8878 172.7776 L948.8878 175.7776 L943.8878 172.7776 Z" stroke="none" clip-path="url(#clipPath2)"/>
      <path fill="none" d="M948.8878 344.8215 L948.8878 356.7776" clip-path="url(#clipPath2)"/>
      <path d="M948.8878 364.7776 L953.8878 352.7776 L948.8878 355.7776 L943.8878 352.7776 Z" stroke="none" clip-path="url(#clipPath2)"/>
      <path fill="none" d="M948.8878 224.8215 L948.8878 236.7776" clip-path="url(#clipPath2)"/>
      <path d="M948.8878 244.7776 L953.8878 232.7776 L948.8878 235.7776 L943.8878 232.7776 Z" stroke="none" clip-path="url(#clipPath2)"/>
      <path fill="none" d="M948.8878 284.8215 L948.8878 296.7776" clip-path="url(#clipPath2)"/>
      <path d="M948.8878 304.7776 L953.8878 292.7776 L948.8878 295.7776 L943.8878 292.7776 Z" stroke="none" clip-path="url(#clipPath2)"/>
    </g>
    <g fill="url(#linearGradient32)" text-rendering="geometricPrecision" shape-rendering="geometricPrecision" transform="matrix(1,0,0,1,-63,486)" stroke="url(#linearGradient32)">
      <circle r="20" clip-path="url(#clipPath2)" cx="948.8878" cy="144.8118" stroke="none"/>
    </g>
    <g text-rendering="geometricPrecision" stroke-miterlimit="1.45" shape-rendering="geometricPrecision" transform="matrix(1,0,0,1,-63,486)" stroke-linecap="butt">
      <circle fill="none" r="20" clip-path="url(#clipPath2)" cx="948.8878" cy="144.8118"/>
    </g>
    <g fill="url(#linearGradient33)" text-rendering="geometricPrecision" shape-rendering="geometricPrecision" transform="matrix(1,0,0,1,-63,486)" stroke="url(#linearGradient33)">
      <path d="M888.8878 184.8118 L1008.8878 184.8118 L1008.8878 224.8118 L888.8878 224.8118 Z" stroke="none" clip-path="url(#clipPath2)"/>
    </g>
    <g text-rendering="geometricPrecision" stroke-miterlimit="1.45" shape-rendering="geometricPrecision" transform="matrix(1,0,0,1,-63,486)" stroke-linecap="butt">
      <path fill="none" d="M888.8878 184.8118 L1008.8878 184.8118 L1008.8878 224.8118 L888.8878 224.8118 Z" clip-path="url(#clipPath2)"/>
      <text x="922.5411" xml:space="preserve" y="202.175" clip-path="url(#clipPath2)" font-family="sans-serif" stroke="none">Set Servo</text>
      <text x="928.5382" xml:space="preserve" y="216.8762" clip-path="url(#clipPath2)" font-family="sans-serif" stroke="none">Speeds</text>
    </g>
    <g fill="url(#linearGradient34)" text-rendering="geometricPrecision" shape-rendering="geometricPrecision" transform="matrix(1,0,0,1,-63,486)" stroke="url(#linearGradient34)">
      <circle r="20" clip-path="url(#clipPath2)" cx="948.8878" cy="384.8118" stroke="none"/>
    </g>
    <g text-rendering="geometricPrecision" stroke-miterlimit="1.45" shape-rendering="geometricPrecision" transform="matrix(1,0,0,1,-63,486)" stroke-linecap="butt">
      <circle fill="none" r="20" clip-path="url(#clipPath2)" cx="948.8878" cy="384.8118"/>
    </g>
    <g fill="url(#linearGradient35)" text-rendering="geometricPrecision" shape-rendering="geometricPrecision" transform="matrix(1,0,0,1,-63,486)" stroke="url(#linearGradient35)">
      <path d="M888.8878 244.8118 L1008.8878 244.8118 L1008.8878 284.8118 L888.8878 284.8118 Z" stroke="none" clip-path="url(#clipPath2)"/>
    </g>
    <g text-rendering="geometricPrecision" stroke-miterlimit="1.45" shape-rendering="geometricPrecision" transform="matrix(1,0,0,1,-63,486)" stroke-linecap="butt">
      <path fill="none" d="M888.8878 244.8118 L1008.8878 244.8118 L1008.8878 284.8118 L888.8878 284.8118 Z" clip-path="url(#clipPath2)"/>
      <text x="927.879" xml:space="preserve" y="262.175" clip-path="url(#clipPath2)" font-family="sans-serif" stroke="none">Set Call</text>
      <text x="899.5255" xml:space="preserve" y="276.8762" clip-path="url(#clipPath2)" font-family="sans-serif" stroke="none">Button LED States</text>
    </g>
    <g fill="url(#linearGradient36)" text-rendering="geometricPrecision" shape-rendering="geometricPrecision" transform="matrix(1,0,0,1,-63,486)" stroke="url(#linearGradient36)">
      <path d="M888.8878 304.8118 L1008.8878 304.8118 L1008.8878 344.8118 L888.8878 344.8118 Z" stroke="none" clip-path="url(#clipPath2)"/>
    </g>
    <g text-rendering="geometricPrecision" stroke-miterlimit="1.45" shape-rendering="geometricPrecision" transform="matrix(1,0,0,1,-63,486)" stroke-linecap="butt">
      <path fill="none" d="M888.8878 304.8118 L1008.8878 304.8118 L1008.8878 344.8118 L888.8878 344.8118 Z" clip-path="url(#clipPath2)"/>
      <text x="904.1925" xml:space="preserve" y="322.175" clip-path="url(#clipPath2)" font-family="sans-serif" stroke="none">Update Marquee</text>
      <text x="929.215" xml:space="preserve" y="336.8762" clip-path="url(#clipPath2)" font-family="sans-serif" stroke="none">Display</text>
    </g>
  </g>
</svg>
